<?xml version="1.0" encoding="UTF-8" standalone="no"?>
<svg
   width="201.78911"
   height="101.68128"
   version="1.1"
   viewBox="0 0 201.78911 101.68128"
   xml:space="preserve"
   id="svg57"
   sodipodi:docname="bmbf_logo.svg"
   inkscape:version="1.2.2 (1:1.2.2+202212051551+b0a8486541)"
   xmlns:inkscape="http://www.inkscape.org/namespaces/inkscape"
   xmlns:sodipodi="http://sodipodi.sourceforge.net/DTD/sodipodi-0.dtd"
   xmlns="http://www.w3.org/2000/svg"
   xmlns:svg="http://www.w3.org/2000/svg"
   xmlns:rdf="http://www.w3.org/1999/02/22-rdf-syntax-ns#"
   xmlns:cc="http://creativecommons.org/ns#"
   xmlns:dc="http://purl.org/dc/elements/1.1/"><sodipodi:namedview
     id="namedview59"
     pagecolor="#ffffff"
     bordercolor="#666666"
     borderopacity="1.0"
     inkscape:showpageshadow="2"
     inkscape:pageopacity="0.0"
     inkscape:pagecheckerboard="0"
     inkscape:deskcolor="#000000"
     showgrid="false"
     inkscape:zoom="4.5899752"
     inkscape:cx="65.577696"
     inkscape:cy="73.311943"
     inkscape:window-width="1850"
     inkscape:window-height="1136"
     inkscape:window-x="0"
     inkscape:window-y="0"
     inkscape:window-maximized="1"
     inkscape:current-layer="svg57" /><metadata
     id="metadata2"><rdf:RDF><cc:Work
         rdf:about=""><dc:format>image/svg+xml</dc:format><dc:type
           rdf:resource="http://purl.org/dc/dcmitype/StillImage" /></cc:Work></rdf:RDF></metadata><defs
     id="defs15"><filter
       id="a"
       x="-0.82387404"
       y="-0.1441655"
       width="2.6477481"
       height="1.288331"
       color-interpolation-filters="sRGB"><feFlood
         flood-color="rgb(211,211,211)"
         flood-opacity=".203922"
         result="flood"
         id="feFlood4" /><feComposite
         in="flood"
         in2="SourceGraphic"
         operator="in"
         result="composite1"
         id="feComposite6" /><feGaussianBlur
         in="composite1"
         result="blur"
         stdDeviation="1.5"
         id="feGaussianBlur8" /><feOffset
         dx="0"
         dy="0"
         result="offset"
         id="feOffset10" /><feComposite
         in="SourceGraphic"
         in2="offset"
         result="composite2"
         id="feComposite12" /></filter></defs><path
     d="m 168.40402,48.395168 c 0,-0.687465 -0.16133,-1.174397 -0.48533,-1.465597 -0.32533,-0.291599 -0.70266,-0.436932 -1.14133,-0.436932 -0.46133,0 -0.86,0.145333 -1.188,0.436932 -0.33066,0.2912 -0.496,0.778132 -0.496,1.465597 0,0.687598 0.16534,1.177064 0.496,1.466129 0.328,0.2928 0.71467,0.435999 1.148,0.435999 0.46267,0 0.856,-0.143199 1.18133,-0.435999 0.324,-0.289065 0.48533,-0.778531 0.48533,-1.466129 z m -2.12133,6.257851 c -0.27999,0 -0.52133,-0.01827 -0.73333,-0.05733 -0.12,0.0636 -0.23733,0.143199 -0.34666,0.237066 -0.11334,0.09373 -0.21334,0.205733 -0.30667,0.336932 -0.0933,0.130267 -0.16933,0.289066 -0.22933,0.465066 -0.06,0.179733 -0.088,0.387999 -0.088,0.623465 0,1.019731 0.56,1.52759 1.68399,1.52759 0.96534,0 1.67467,-0.190127 2.14133,-0.566659 0.46,-0.375999 0.692,-0.808265 0.692,-1.29693 0,-0.460933 -0.14267,-0.787465 -0.43866,-0.981731 -0.29067,-0.191066 -0.67734,-0.287466 -1.168,-0.287466 z m 4.41599,-7.962514 h -1.18799 c 0.304,0.502666 0.456,1.069331 0.456,1.704663 0,0.503199 -0.0813,0.954264 -0.24667,1.357863 -0.16667,0.403599 -0.39733,0.743732 -0.692,1.019731 -0.3,0.279732 -0.64933,0.489599 -1.052,0.633865 -0.4,0.145866 -0.83333,0.220399 -1.29733,0.220399 h -0.25866 c -0.08,0 -0.164,-0.0095 -0.25467,-0.02347 -0.16266,0.07027 -0.32533,0.172933 -0.49733,0.320266 -0.17067,0.143199 -0.256,0.334399 -0.256,0.571332 0,0.199466 0.0733,0.358399 0.22667,0.488532 0.15066,0.120933 0.39866,0.185999 0.74266,0.185999 h 1.20666 c 0.44934,0 0.868,0.04587 1.24933,0.140667 0.38267,0.08853 0.716,0.235866 1.00267,0.442665 0.28266,0.204666 0.504,0.465066 0.66133,0.781198 0.15867,0.319333 0.24133,0.702132 0.24133,1.149997 0,0.514132 -0.11066,0.984398 -0.32666,1.40733 -0.22,0.423466 -0.528,0.783866 -0.924,1.091206 -0.396,0.30093 -0.87733,0.54053 -1.44666,0.71239 -0.56934,0.1704 -1.20133,0.25627 -1.9,0.25627 -1.01866,0 -1.79066,-0.2224 -2.31999,-0.66507 -0.528,-0.43906 -0.792,-1.077063 -0.792,-1.908795 0,-0.355732 0.0613,-0.665731 0.18667,-0.921997 0.124,-0.257733 0.27466,-0.481732 0.44666,-0.674399 0.17067,-0.192666 0.348,-0.342665 0.52533,-0.455732 0.17734,-0.109333 0.32,-0.203199 0.424,-0.265599 v -0.04173 c -0.40933,-0.3036 -0.612,-0.744799 -0.612,-1.327064 0,-0.249999 0.048,-0.467199 0.14934,-0.653598 0.0987,-0.183333 0.21066,-0.333333 0.336,-0.454132 0.124,-0.1188 0.25066,-0.2152 0.37599,-0.288133 0.12667,-0.07133 0.22134,-0.1224 0.28534,-0.1468 v -0.04067 c -0.48667,-0.224 -0.87867,-0.578132 -1.17733,-1.058264 -0.296,-0.481866 -0.444,-1.100531 -0.444,-1.854262 0,-0.529066 0.0853,-0.994798 0.25733,-1.39573 0.17067,-0.403732 0.40133,-0.738532 0.692,-1.001598 0.29333,-0.263599 0.632,-0.461465 1.02133,-0.594265 0.38933,-0.130799 0.80933,-0.198933 1.25466,-0.198933 0.45467,0 0.876,0.08013 1.26933,0.237467 h 2.89466 z m -10.81464,8.26038 V 48.8301 c 0,-0.804665 -0.13733,-1.382796 -0.40666,-1.733862 -0.27067,-0.349466 -0.68267,-0.523999 -1.23733,-0.523999 -0.47733,0 -0.87333,0.118266 -1.19067,0.357332 -0.31733,0.237067 -0.56666,0.468266 -0.75333,0.692665 v 7.328649 h -1.60533 v -9.508776 h 1.46667 v 1.07133 h 0.0413 c 0.0373,-0.08067 0.124,-0.195333 0.25867,-0.346399 0.12933,-0.1536 0.30266,-0.298933 0.51466,-0.436932 0.212,-0.138533 0.46,-0.260933 0.752,-0.366133 0.29067,-0.106799 0.62133,-0.159333 0.99066,-0.159333 0.424,0 0.80667,0.064 1.14933,0.186933 0.34267,0.127067 0.63334,0.329733 0.87334,0.606265 0.23466,0.2776 0.41999,0.637466 0.55333,1.080664 0.13066,0.440666 0.196,0.987065 0.196,1.635463 v 6.236918 z m -7.64664,0 h -1.46533 v -1.068664 h -0.0427 c -0.0387,0.07813 -0.12533,0.195333 -0.256,0.344799 -0.132,0.155199 -0.3,0.298399 -0.50666,0.436399 -0.20534,0.139066 -0.45067,0.263066 -0.744,0.367199 -0.28934,0.1068 -0.61333,0.159866 -0.96933,0.159866 -0.424,0 -0.8,-0.06253 -1.14,-0.190133 -0.33467,-0.125999 -0.62667,-0.326532 -0.86133,-0.604132 -0.236,-0.278666 -0.41867,-0.636398 -0.54533,-1.07653 -0.12534,-0.442666 -0.18667,-0.986931 -0.18667,-1.634396 v -6.243184 h 1.60266 v 6.123451 c 0,0.794265 0.13067,1.35573 0.38667,1.691596 0.25866,0.335999 0.66,0.505198 1.19866,0.505198 0.464,0 0.85467,-0.114533 1.16933,-0.346265 0.31867,-0.2308 0.56933,-0.454799 0.75333,-0.681332 v -7.292648 h 1.60667 z m -10.66131,0 V 48.8301 c 0,-0.804665 -0.13467,-1.382796 -0.404,-1.733862 -0.27333,-0.349466 -0.68666,-0.523999 -1.24,-0.523999 -0.476,0 -0.86933,0.118266 -1.18933,0.357332 -0.31466,0.237067 -0.56533,0.468266 -0.75199,0.692665 v 7.328649 h -1.604 V 40.94572 l 1.604,-0.178133 v 5.646386 h 0.04 c 0.0547,-0.07867 0.13599,-0.186 0.24933,-0.317733 0.11066,-0.131199 0.26533,-0.263466 0.46266,-0.394799 0.19867,-0.131733 0.44134,-0.247866 0.724,-0.348932 0.28667,-0.09947 0.61867,-0.147867 1.00267,-0.147867 0.83199,0 1.49066,0.271333 1.97866,0.812932 0.48933,0.543732 0.73466,1.440663 0.73466,2.696393 v 6.236918 z m -7.54665,-7.664514 c -0.0387,-0.03907 -0.10266,-0.101067 -0.188,-0.1808 -0.0853,-0.07707 -0.19466,-0.1572 -0.328,-0.235866 -0.13333,-0.07813 -0.28933,-0.148933 -0.47733,-0.2084 -0.18133,-0.0588 -0.39333,-0.08907 -0.63066,-0.08907 -0.34534,0 -0.66534,0.06307 -0.96,0.1876 -0.29867,0.125466 -0.55733,0.328132 -0.77467,0.604665 -0.21866,0.279199 -0.38933,0.636398 -0.516,1.08013 -0.12399,0.443333 -0.18533,0.980265 -0.18533,1.614663 0,0.700532 0.0547,1.289063 0.168,1.761462 0.11067,0.476532 0.26667,0.856798 0.464,1.143197 0.19733,0.2812 0.43867,0.484399 0.72267,0.610932 0.28533,0.123467 0.59599,0.187466 0.93999,0.187466 0.49067,0 0.86267,-0.08333 1.12,-0.255199 0.25867,-0.171866 0.44133,-0.312533 0.54533,-0.418266 l 0.65333,1.111998 c -0.064,0.07813 -0.16266,0.174533 -0.28666,0.286532 -0.124,0.110933 -0.28533,0.220266 -0.48667,0.324399 -0.196,0.1068 -0.43866,0.195333 -0.72133,0.268266 -0.284,0.07293 -0.612,0.1104 -0.98,0.1104 -0.53066,0 -1.02399,-0.08587 -1.48533,-0.258799 -0.464,-0.1708 -0.86666,-0.453199 -1.21066,-0.850531 -0.34267,-0.396933 -0.612,-0.911465 -0.80933,-1.542663 -0.19867,-0.634399 -0.3,-1.421863 -0.3,-2.356794 0,-0.915598 0.11867,-1.686529 0.356,-2.320795 0.24,-0.633865 0.54933,-1.14693 0.932,-1.537596 0.384,-0.387465 0.81066,-0.671865 1.27599,-0.849998 0.47334,-0.178132 0.94533,-0.268666 1.41733,-0.268666 0.35867,0 0.672,0.03427 0.94267,0.1 0.27066,0.0656 0.5,0.148933 0.69333,0.247333 0.19466,0.09947 0.34933,0.205199 0.47466,0.316132 0.12667,0.112 0.228,0.209467 0.308,0.288533 z m -8.12131,0.07813 c -0.10667,-0.1172 -0.296,-0.2808 -0.576,-0.485999 -0.276,-0.205733 -0.64133,-0.306266 -1.088,-0.306266 -0.42533,0 -0.748,0.09853 -0.97466,0.297466 -0.22133,0.196933 -0.336,0.434932 -0.336,0.712531 0,0.356666 0.104,0.651466 0.30933,0.881732 0.20533,0.233332 0.516,0.478132 0.94,0.742131 l 0.59333,0.359466 c 0.64667,0.381732 1.156,0.795731 1.52933,1.235863 0.36667,0.442799 0.55333,1.013065 0.55333,1.713596 0,0.751065 -0.26266,1.386397 -0.78533,1.903595 -0.52,0.513066 -1.27066,0.771865 -2.24799,0.771865 -0.38,0 -0.72,-0.04013 -1.008,-0.119733 -0.292,-0.0808 -0.544,-0.170399 -0.76266,-0.277066 -0.21867,-0.105733 -0.40134,-0.222933 -0.54667,-0.347999 -0.144,-0.1276 -0.264,-0.237999 -0.356,-0.346266 l 0.77333,-1.266663 c 0.0773,0.07907 0.17467,0.171866 0.28667,0.274399 0.11066,0.1084 0.248,0.212533 0.40666,0.308933 0.15734,0.09893 0.33734,0.180666 0.53334,0.248399 0.19733,0.06773 0.43199,0.09787 0.69199,0.09787 0.47734,0 0.84134,-0.103066 1.092,-0.316665 0.25333,-0.209333 0.37467,-0.464533 0.37467,-0.771865 0,-0.222933 -0.0293,-0.418266 -0.088,-0.584932 -0.06,-0.1624 -0.148,-0.312399 -0.26667,-0.443732 -0.116,-0.131733 -0.26533,-0.259333 -0.436,-0.376533 -0.17066,-0.119733 -0.36933,-0.249999 -0.596,-0.395865 l -0.59333,-0.375999 c -0.59333,-0.385466 -1.05733,-0.786398 -1.39599,-1.209864 -0.33867,-0.423999 -0.504,-0.963598 -0.504,-1.625063 0,-0.357199 0.068,-0.683331 0.208,-0.982264 0.13733,-0.293733 0.332,-0.552532 0.58266,-0.771331 0.252,-0.2188 0.544,-0.389599 0.88133,-0.516666 0.33733,-0.122933 0.69733,-0.186933 1.08,-0.186933 0.36933,0 0.68666,0.03693 0.95066,0.109867 0.26534,0.0708 0.492,0.165066 0.684,0.277066 0.19067,0.113066 0.34933,0.225066 0.47733,0.337999 0.124,0.109333 0.22534,0.208933 0.30534,0.286533 z m -5.60665,-0.515066 c -0.0413,-0.02667 -0.12534,-0.05787 -0.25867,-0.1 -0.13333,-0.03813 -0.312,-0.05893 -0.536,-0.05893 -0.5,0 -0.89466,0.137067 -1.17733,0.405733 -0.28533,0.271332 -0.48533,0.565598 -0.604,0.881731 v 6.972916 h -1.60533 v -9.508776 h 1.46533 v 1.289596 h 0.04 c 0.0667,-0.185466 0.14934,-0.367199 0.25734,-0.545865 0.10533,-0.1776 0.23866,-0.337466 0.39466,-0.473999 0.16133,-0.139599 0.348,-0.248933 0.56533,-0.329066 0.21867,-0.07813 0.47867,-0.119333 0.78533,-0.119333 0.22134,0 0.40534,0.02133 0.54534,0.06147 0.13733,0.03907 0.244,0.07133 0.324,0.09693 z m -7.86798,3.348925 c 0,-1.268263 -0.18267,-2.189061 -0.55334,-2.763593 -0.36933,-0.575465 -0.88533,-0.862531 -1.54399,-0.862531 -0.66,0 -1.17333,0.287066 -1.53733,0.862531 -0.36267,0.574532 -0.544,1.49533 -0.544,2.763593 0,1.268264 0.184,2.179595 0.55466,2.731727 0.36934,0.554665 0.88667,0.832264 1.54667,0.832264 0.66,0 1.17066,-0.277599 1.53333,-0.832264 0.364,-0.552132 0.544,-1.463463 0.544,-2.731727 z m -5.84266,0 c 0,-0.872398 0.10267,-1.625062 0.308,-2.259461 0.20267,-0.634265 0.48134,-1.15253 0.83067,-1.553063 0.35066,-0.405732 0.752,-0.701598 1.21066,-0.892131 0.45333,-0.191732 0.93867,-0.289066 1.45466,-0.289066 0.528,0 1.01734,0.09733 1.46667,0.289066 0.448,0.190533 0.83733,0.486399 1.16799,0.892131 0.33067,0.400533 0.592,0.918798 0.78267,1.553063 0.192,0.634399 0.28666,1.387063 0.28666,2.259461 0,0.885331 -0.0973,1.645863 -0.29599,2.278661 -0.19867,0.630132 -0.472,1.148397 -0.82267,1.553596 -0.34933,0.403599 -0.75733,0.696399 -1.21866,0.882798 -0.46133,0.182266 -0.952,0.277066 -1.46533,0.277066 -0.52933,0 -1.01733,-0.0948 -1.46667,-0.277066 -0.44933,-0.186399 -0.83733,-0.479199 -1.16933,-0.882798 -0.32799,-0.405199 -0.59066,-0.918264 -0.78266,-1.544262 -0.19067,-0.625066 -0.28667,-1.389597 -0.28667,-2.287995 z M 98.6666,54.950882 V 41.281719 h 6.71491 l -0.11733,1.366663 h -4.87519 v 5.054121 h 4.49786 v 1.367196 h -4.49786 v 5.881186 z M 88.284759,53.762354 c 0.25,0 0.476132,-0.03013 0.673998,-0.09787 0.1984,-0.06773 0.370266,-0.149466 0.514533,-0.248399 0.145333,-0.0964 0.267732,-0.200533 0.368265,-0.308933 0.09747,-0.102533 0.175067,-0.195333 0.226533,-0.274399 v -5.864652 c -0.1452,-0.0916 -0.312933,-0.169733 -0.505199,-0.2364 -0.191599,-0.06773 -0.433332,-0.09893 -0.723331,-0.09893 -0.369333,0 -0.715732,0.0604 -1.040131,0.187466 -0.322932,0.125467 -0.603732,0.333866 -0.842798,0.622932 -0.236933,0.291066 -0.423865,0.667732 -0.563465,1.130131 -0.138,0.460932 -0.207866,1.03133 -0.207866,1.704662 0,0.659998 0.05573,1.21093 0.168799,1.656263 0.112533,0.441199 0.266666,0.796931 0.465066,1.06613 0.198399,0.269866 0.422399,0.463599 0.673465,0.583332 0.250533,0.1188 0.514532,0.178666 0.792131,0.178667 z m -3.76399,-3.424391 c 0,-0.963598 0.125466,-1.770929 0.377599,-2.418261 0.250532,-0.648398 0.573998,-1.170263 0.970264,-1.564129 0.395332,-0.395732 0.845331,-0.678532 1.346397,-0.842131 0.502132,-0.1672 1.00413,-0.25 1.506796,-0.25 0.302532,0 0.567732,0.02507 0.791598,0.0708 0.225066,0.04533 0.409465,0.102667 0.554665,0.169866 V 40.94572 l 1.605196,-0.178133 v 14.183298 h -1.467063 v -1.008798 h -0.0396 c -0.03853,0.0792 -0.1104,0.187466 -0.217199,0.328133 -0.1052,0.137999 -0.250533,0.275999 -0.435999,0.415065 -0.1844,0.138 -0.416133,0.2552 -0.693732,0.3568 -0.277599,0.09893 -0.600532,0.148399 -0.970264,0.148399 -0.448532,0 -0.874531,-0.0896 -1.278664,-0.269199 -0.402132,-0.179733 -0.755198,-0.462532 -1.05933,-0.850531 -0.303733,-0.389066 -0.544799,-0.891731 -0.721865,-1.505197 -0.1792,-0.614665 -0.268799,-1.356796 -0.268799,-2.227594 z m -3.564525,4.612922 V 48.8301 c 0,-0.804665 -0.136533,-1.382796 -0.406799,-1.733862 -0.271866,-0.349466 -0.683865,-0.523999 -1.239597,-0.523999 -0.474532,0 -0.870264,0.118266 -1.187463,0.357332 -0.316133,0.237067 -0.567732,0.468266 -0.752132,0.692665 v 7.328649 H 75.76559 v -9.508776 h 1.46453 v 1.07133 h 0.0396 c 0.03907,-0.08067 0.125066,-0.195333 0.257333,-0.346399 0.131199,-0.1536 0.304666,-0.298933 0.515065,-0.436932 0.211466,-0.138533 0.461999,-0.260933 0.754132,-0.366133 0.289066,-0.106799 0.618798,-0.159333 0.989064,-0.159333 0.423465,0 0.806798,0.064 1.149997,0.186933 0.343732,0.127067 0.632798,0.329733 0.870931,0.606265 0.238533,0.2776 0.422399,0.637466 0.554665,1.080664 0.1328,0.440666 0.199466,0.987065 0.199466,1.635463 v 6.236918 z m -7.649581,0 h -1.466129 v -1.068664 h -0.038 c -0.04053,0.07813 -0.126533,0.195333 -0.2572,0.344799 -0.133333,0.155199 -0.301599,0.298399 -0.505732,0.436399 -0.205333,0.139066 -0.453199,0.263066 -0.743331,0.367199 -0.290533,0.1068 -0.613465,0.159866 -0.970264,0.159866 -0.422933,0 -0.803065,-0.06253 -1.140131,-0.190133 -0.335866,-0.125999 -0.624398,-0.326532 -0.859864,-0.604132 -0.239066,-0.278666 -0.420799,-0.636398 -0.545866,-1.07653 -0.127066,-0.442666 -0.187999,-0.986931 -0.187999,-1.634396 v -6.243184 h 1.604129 v 6.123451 c 0,0.794265 0.128133,1.35573 0.385466,1.691596 0.258266,0.335999 0.656798,0.505198 1.199997,0.505198 0.460932,0 0.852131,-0.114533 1.16773,-0.346265 0.319199,-0.2308 0.568132,-0.454799 0.753065,-0.681332 v -7.292648 h 1.604129 z M 141.41876,28.416684 c 0,-0.686531 -0.164,-1.17613 -0.48667,-1.465729 -0.32133,-0.29 -0.70266,-0.434799 -1.13866,-0.434799 -0.46267,0 -0.85867,0.144799 -1.188,0.434799 -0.328,0.289599 -0.496,0.779198 -0.496,1.465729 0,0.686932 0.168,1.175997 0.496,1.46613 0.32933,0.291066 0.71333,0.435332 1.14933,0.435332 0.46133,0 0.856,-0.144266 1.17733,-0.435332 0.32267,-0.290133 0.48667,-0.779198 0.48667,-1.46613 z m -2.12,6.259851 c -0.276,0 -0.52133,-0.01933 -0.73333,-0.05947 -0.11733,0.06773 -0.23467,0.144266 -0.34533,0.237599 -0.11334,0.0948 -0.216,0.206666 -0.30933,0.337466 -0.092,0.1312 -0.16534,0.286399 -0.22667,0.465066 -0.06,0.178133 -0.088,0.387465 -0.088,0.623998 0,1.017731 0.56133,1.525996 1.68266,1.525996 0.96667,0 1.68,-0.187999 2.14,-0.562932 0.46266,-0.377199 0.69199,-0.810531 0.69199,-1.299063 0,-0.463999 -0.14266,-0.788531 -0.43466,-0.980131 -0.29067,-0.191733 -0.67867,-0.288533 -1.16933,-0.288533 z m 4.41732,-7.96358 h -1.18799 c 0.304,0.502666 0.456,1.069864 0.456,1.703729 0,0.502532 -0.0813,0.955198 -0.24667,1.356664 -0.164,0.403732 -0.396,0.742798 -0.69333,1.02093 -0.29867,0.278 -0.64933,0.489466 -1.05067,0.634799 -0.40266,0.1448 -0.83733,0.217199 -1.29599,0.217199 h -0.26134 c -0.0773,0 -0.16399,-0.0077 -0.25466,-0.02133 -0.15867,0.06827 -0.324,0.1724 -0.49867,0.318266 -0.16933,0.145733 -0.25466,0.337466 -0.25466,0.574932 0,0.197999 0.076,0.358932 0.22666,0.486532 0.15334,0.1224 0.40267,0.187466 0.744,0.187466 h 1.208 c 0.448,0 0.86266,0.0464 1.24933,0.136933 0.38133,0.0948 0.71733,0.241733 0.99733,0.445332 0.28533,0.2052 0.508,0.466133 0.66666,0.782798 0.15734,0.319333 0.23734,0.699999 0.23734,1.150531 0,0.514532 -0.11067,0.984397 -0.328,1.40733 -0.21867,0.421865 -0.524,0.785331 -0.92133,1.087997 -0.39734,0.304666 -0.87733,0.543732 -1.44533,0.714531 -0.57067,0.1704 -1.20267,0.2584 -1.90266,0.2584 -1.01734,0 -1.79067,-0.221333 -2.31733,-0.665065 -0.52933,-0.443332 -0.792,-1.080264 -0.792,-1.912529 0,-0.354665 0.0627,-0.663598 0.18667,-0.921331 0.12666,-0.257332 0.27466,-0.481865 0.448,-0.672931 0.17066,-0.192267 0.34533,-0.3432 0.52266,-0.455733 0.17867,-0.112533 0.32267,-0.202132 0.428,-0.265599 v -0.04227 c -0.412,-0.302533 -0.61467,-0.746265 -0.61467,-1.327064 0,-0.251599 0.048,-0.468265 0.148,-0.653598 0.0987,-0.186 0.20934,-0.334933 0.33467,-0.455732 0.12667,-0.1188 0.25333,-0.2152 0.37867,-0.286533 0.12533,-0.0724 0.22133,-0.122933 0.28799,-0.149466 v -0.03907 c -0.48933,-0.224399 -0.88399,-0.578665 -1.17866,-1.060397 -0.29733,-0.481732 -0.44933,-1.099464 -0.44933,-1.851996 0,-0.528665 0.0893,-0.993864 0.26,-1.396396 0.172,-0.402666 0.40266,-0.736532 0.692,-1.001598 0.29333,-0.263466 0.63066,-0.461465 1.02266,-0.594265 0.388,-0.130666 0.808,-0.197333 1.25866,-0.197333 0.448,0 0.87067,0.0796 1.26533,0.238533 h 2.896 z m -10.81597,8.261446 V 28.85255 c 0,-0.805198 -0.13467,-1.383863 -0.40933,-1.733329 -0.26667,-0.350532 -0.67867,-0.524932 -1.23333,-0.524932 -0.47733,0 -0.87467,0.118666 -1.188,0.356666 -0.31866,0.237066 -0.572,0.468265 -0.75466,0.694265 v 7.329181 h -1.60533 v -9.508776 h 1.46533 v 1.070264 h 0.0413 c 0.0373,-0.08067 0.124,-0.196399 0.256,-0.348399 0.13067,-0.152666 0.304,-0.295866 0.51733,-0.435466 0.208,-0.137999 0.46,-0.261999 0.752,-0.366665 0.28933,-0.106267 0.62133,-0.158267 0.98933,-0.158267 0.424,0 0.80533,0.06293 1.15066,0.188533 0.34267,0.126 0.632,0.325999 0.86934,0.603065 0.24,0.2776 0.42533,0.638532 0.55599,1.079731 0.13067,0.443199 0.19734,0.989064 0.19734,1.634929 v 6.241051 z m -7.64665,0 h -1.46666 v -1.068797 h -0.04 c -0.0413,0.07773 -0.12667,0.193866 -0.25733,0.346399 -0.132,0.15 -0.30133,0.296399 -0.50533,0.435999 -0.204,0.136933 -0.45334,0.261466 -0.744,0.365599 -0.28933,0.1068 -0.612,0.157733 -0.97067,0.157733 -0.42133,0 -0.79866,-0.06133 -1.13599,-0.188533 -0.33867,-0.123866 -0.62667,-0.324932 -0.86267,-0.603598 -0.24,-0.2776 -0.41866,-0.636399 -0.54533,-1.079731 -0.12533,-0.442665 -0.188,-0.985864 -0.188,-1.633329 v -6.240518 h 1.60533 v 6.120785 c 0,0.793198 0.12667,1.357863 0.38533,1.694262 0.25733,0.335999 0.65467,0.505199 1.19867,0.505199 0.46399,0 0.84933,-0.116133 1.16933,-0.346399 0.31466,-0.2296 0.56933,-0.458266 0.75066,-0.684265 v -7.289582 h 1.60666 z m -12.5013,-1.18853 c 0.252,0 0.476,-0.03493 0.67333,-0.09893 0.19867,-0.06507 0.37067,-0.15 0.516,-0.247466 0.14533,-0.1 0.26667,-0.200933 0.36667,-0.309333 0.1,-0.104666 0.17466,-0.195866 0.228,-0.275999 v -5.864655 c -0.144,-0.09053 -0.31467,-0.171866 -0.50533,-0.237466 -0.19067,-0.06613 -0.43334,-0.09787 -0.72267,-0.09787 -0.372,0 -0.71866,0.06147 -1.04,0.187467 -0.32533,0.127066 -0.60533,0.334399 -0.84266,0.624531 -0.23733,0.289466 -0.42667,0.666665 -0.564,1.128131 -0.14133,0.463465 -0.20933,1.030664 -0.20933,1.704129 0,0.659865 0.056,1.21293 0.168,1.655196 0.112,0.441599 0.268,0.798398 0.46666,1.069197 0.19867,0.270933 0.42267,0.465732 0.672,0.584399 0.252,0.118799 0.516,0.178666 0.79333,0.178666 z m -3.76399,-3.428125 c 0,-0.962531 0.12533,-1.769729 0.376,-2.417194 0.25067,-0.646265 0.57467,-1.169197 0.972,-1.563996 0.39333,-0.396932 0.844,-0.678131 1.34533,-0.842798 0.504,-0.163999 1.00533,-0.247332 1.50666,-0.247332 0.30533,0 0.568,0.02293 0.792,0.0692 0.224,0.0464 0.412,0.102667 0.556,0.1688 v -4.556255 l 1.60399,-0.1792 v 14.185431 h -1.46666 v -1.011464 h -0.0387 c -0.0387,0.08173 -0.11066,0.188533 -0.21733,0.329199 -0.108,0.137467 -0.252,0.276 -0.43733,0.416133 -0.184,0.136399 -0.416,0.256799 -0.69333,0.356265 -0.276,0.09893 -0.6,0.1468 -0.97067,0.1468 -0.44933,0 -0.87466,-0.0864 -1.27733,-0.265599 -0.40266,-0.180133 -0.75733,-0.462399 -1.05999,-0.852531 -0.30267,-0.389599 -0.54534,-0.890665 -0.72267,-1.50573 -0.17867,-0.615198 -0.268,-1.35733 -0.268,-2.229728 z m -2.49466,2.397461 c 0,0.395732 0.0547,0.674932 0.16667,0.833331 0.11066,0.156133 0.30666,0.235333 0.58533,0.235333 0.144,0 0.26666,-0.012 0.36666,-0.038 0.0973,-0.02813 0.17467,-0.0536 0.22534,-0.07973 l 0.14133,1.189597 c -0.08,0.03853 -0.22533,0.09173 -0.436,0.157866 -0.21066,0.06667 -0.49733,0.09947 -0.85333,0.09947 -0.54133,0 -0.97733,-0.1656 -1.308,-0.495866 -0.32933,-0.329199 -0.49466,-0.918264 -0.49466,-1.763462 v -11.92557 l 1.60666,-0.1792 z m -4.83585,-9.589043 c -0.32907,0 -0.59374,-0.104266 -0.79214,-0.315732 -0.19839,-0.2124 -0.29746,-0.489466 -0.29746,-0.834265 0,-0.328132 0.0991,-0.599465 0.29746,-0.811465 0.1984,-0.210399 0.46307,-0.316665 0.79214,-0.316665 0.3172,0 0.57453,0.106266 0.77239,0.316665 0.19854,0.212 0.29747,0.483333 0.29747,0.811465 0,0.344799 -0.0989,0.621865 -0.29747,0.834265 -0.19786,0.211466 -0.45519,0.315732 -0.77239,0.315732 z m 0.79319,11.808237 h -1.60559 v -9.508776 h 1.60559 z m -5.567579,-3.822923 c 0,-0.741065 -0.241199,-1.323864 -0.723465,-1.753596 C 95.678607,28.96815 94.987942,28.75415 94.089545,28.75415 h -1.168797 v 4.792655 h 1.070264 c 1.01613,0 1.752662,-0.200533 2.207861,-0.602532 0.457332,-0.402666 0.684398,-1.001064 0.684398,-1.792795 z M 96.625405,24.85096 c 0,-0.633865 -0.223999,-1.15573 -0.672932,-1.564529 -0.449465,-0.411466 -1.156263,-0.615066 -2.120261,-0.615066 h -0.911464 v 4.716122 h 0.893197 c 0.921865,0 1.621863,-0.226133 2.098928,-0.674532 0.476133,-0.449465 0.712532,-1.06973 0.712532,-1.861995 z m 1.743196,-0.05987 c 0,0.475999 -0.0588,0.891732 -0.177067,1.247864 -0.118666,0.356799 -0.281732,0.664665 -0.485865,0.921998 -0.2048,0.258266 -0.443332,0.466132 -0.713065,0.622798 -0.271333,0.160533 -0.552132,0.278133 -0.841731,0.356799 v 0.0412 c 0.355332,0.0656 0.689598,0.190133 0.999064,0.375466 0.311999,0.185999 0.582265,0.416132 0.812931,0.693198 0.2324,0.277199 0.417733,0.605199 0.554666,0.982931 0.139066,0.375466 0.207866,0.787465 0.207866,1.237997 0,0.540532 -0.09213,1.035331 -0.276,1.483863 -0.187066,0.450932 -0.473998,0.839064 -0.862531,1.168664 -0.389599,0.330799 -0.881198,0.588532 -1.475996,0.773998 -0.594265,0.184399 -1.30053,0.276532 -2.119861,0.276532 h -2.79266 V 21.304702 h 2.63386 c 0.805731,0 1.495863,0.0812 2.070261,0.245733 0.575066,0.167733 1.047998,0.402132 1.416664,0.704265 0.368799,0.303599 0.637465,0.671865 0.803198,1.099997 0.163466,0.429599 0.246266,0.908264 0.246266,1.436396 z m -12.836902,2.080798 c -0.04013,-0.0272 -0.126533,-0.06053 -0.257332,-0.100533 -0.132267,-0.038 -0.311466,-0.0584 -0.534799,-0.0584 -0.503199,0 -0.895331,0.1344 -1.179197,0.406266 -0.285466,0.271333 -0.485999,0.564532 -0.604132,0.881198 v 6.973982 H 81.35051 v -9.508776 h 1.467063 v 1.286397 h 0.04013 c 0.06467,-0.1844 0.151066,-0.366133 0.257333,-0.543732 0.106266,-0.1792 0.236933,-0.337999 0.395332,-0.475999 0.159333,-0.139066 0.346799,-0.248533 0.563999,-0.327066 0.218266,-0.0792 0.479198,-0.118799 0.783331,-0.118799 0.224533,0 0.406799,0.02027 0.544799,0.05933 0.138533,0.0396 0.247466,0.07187 0.327066,0.09893 z m -7.528114,-4.140656 c 0,0.304666 -0.09373,0.547865 -0.276533,0.732798 -0.185999,0.1844 -0.411465,0.278133 -0.674531,0.278133 -0.265066,0 -0.488533,-0.09373 -0.673865,-0.278133 -0.184933,-0.184933 -0.278666,-0.428132 -0.278666,-0.732798 0,-0.304666 0.09373,-0.549465 0.278666,-0.733332 0.185332,-0.184932 0.408799,-0.277066 0.673865,-0.277066 0.263066,0 0.488532,0.09213 0.674531,0.277066 0.1828,0.183867 0.276533,0.428666 0.276533,0.733332 z m -3.051059,0 c 0,0.304666 -0.09267,0.547865 -0.277599,0.732798 -0.184933,0.1844 -0.408799,0.278133 -0.673999,0.278133 -0.264532,0 -0.488932,-0.09373 -0.672798,-0.278133 -0.1844,-0.184933 -0.278666,-0.428132 -0.278666,-0.732798 0,-0.304666 0.09427,-0.549465 0.278666,-0.733332 0.183866,-0.184932 0.408266,-0.277066 0.672798,-0.277066 0.2652,0 0.489066,0.09213 0.673999,0.277066 0.184932,0.183867 0.277599,0.428666 0.277599,0.733332 z m 3.941723,12.243169 h -1.465596 v -1.068797 h -0.03907 c -0.04173,0.07773 -0.126133,0.193866 -0.258399,0.346399 -0.132266,0.15 -0.299466,0.296399 -0.505732,0.435999 -0.203066,0.136933 -0.452132,0.261466 -0.742131,0.365599 -0.290666,0.1068 -0.614666,0.157733 -0.971331,0.157733 -0.421999,0 -0.802665,-0.06133 -1.138131,-0.188533 -0.336399,-0.123866 -0.623865,-0.324932 -0.861864,-0.603598 -0.238666,-0.2776 -0.420933,-0.636399 -0.545866,-1.079731 -0.123466,-0.442665 -0.187066,-0.985864 -0.187066,-1.633329 v -6.240518 h 1.605196 v 6.120785 c 0,0.793198 0.127733,1.357863 0.385466,1.694262 0.257866,0.335999 0.656798,0.505199 1.197863,0.505199 0.461999,0 0.852665,-0.116133 1.168264,-0.346399 0.318266,-0.2296 0.569332,-0.458266 0.754132,-0.684265 v -7.289582 h 1.604262 z m -8.241712,-8.203046 h -1.941062 v 8.203046 h -1.605196 v -8.203046 h -1.149597 v -1.069864 l 1.149597,-0.217733 V 23.58283 c 0,-0.514666 0.0724,-0.957331 0.219733,-1.32813 0.143733,-0.368799 0.335465,-0.673465 0.572931,-0.909998 0.238,-0.238533 0.515599,-0.410399 0.832798,-0.516132 0.316666,-0.106266 0.654132,-0.1572 1.009865,-0.1572 0.343199,0 0.633865,0.04533 0.871331,0.138533 0.237999,0.09107 0.395865,0.165067 0.476132,0.216667 l -0.337066,1.32813 c -0.0796,-0.05213 -0.1916,-0.109467 -0.336932,-0.169867 -0.144267,-0.0572 -0.323466,-0.088 -0.534399,-0.088 -0.382799,0 -0.673998,0.119333 -0.872398,0.355732 -0.198399,0.238533 -0.296799,0.674532 -0.296799,1.308797 v 1.704262 h 2.139461 z M 195.44395,14.995785 V 8.8740665 c 0,-0.778665 -0.11199,-1.339997 -0.33733,-1.683996 -0.22266,-0.342666 -0.588,-0.514666 -1.08799,-0.514666 -0.26534,0 -0.49867,0.03333 -0.70667,0.09867 -0.20267,0.06667 -0.38133,0.149333 -0.54133,0.247999 -0.16133,0.09867 -0.29733,0.208 -0.416,0.326666 -0.11867,0.12 -0.21733,0.224 -0.29733,0.317333 v 7.3297155 h -1.60667 V 5.4860775 h 1.46667 v 1.070664 h 0.0413 c 0.0653,-0.105333 0.16533,-0.233333 0.29467,-0.385332 0.13333,-0.153333 0.29866,-0.297333 0.49733,-0.437333 0.19733,-0.138666 0.43066,-0.254666 0.692,-0.346665 0.26533,-0.092 0.56,-0.137333 0.89333,-0.137333 1.08266,0 1.84799,0.421332 2.29733,1.266663 0.0907,-0.130666 0.21733,-0.271999 0.37866,-0.426665 0.15467,-0.150667 0.34133,-0.289333 0.55067,-0.415999 0.21333,-0.124 0.452,-0.226666 0.71466,-0.305333 0.264,-0.08133 0.556,-0.118666 0.87333,-0.118666 1.928,0 2.892,1.12133 2.892,3.366658 v 6.3790515 h -1.60533 V 8.8740695 c 0,-0.778665 -0.13867,-1.339997 -0.41467,-1.683996 -0.27733,-0.342666 -0.68666,-0.514666 -1.23066,-0.514666 -0.448,0 -0.82,0.109333 -1.11733,0.326666 -0.3,0.218666 -0.53334,0.426666 -0.70267,0.623999 0.024,0.147999 0.0453,0.299999 0.0587,0.466665 0.012,0.165333 0.0187,0.339999 0.0187,0.523999 v 6.3790515 z m -7.44798,0 h -1.46533 v -1.069731 h -0.0413 c -0.0387,0.07867 -0.12533,0.194666 -0.25467,0.346666 -0.13333,0.153333 -0.30266,0.297332 -0.50799,0.437332 -0.204,0.137333 -0.45067,0.258666 -0.74267,0.365466 -0.29066,0.1052 -0.61466,0.158799 -0.968,0.158799 -0.42533,0 -0.80533,-0.06347 -1.14399,-0.189066 -0.336,-0.124533 -0.62134,-0.325866 -0.86133,-0.603198 -0.23467,-0.278666 -0.41867,-0.637332 -0.54534,-1.079998 -0.12133,-0.442665 -0.188,-0.986664 -0.188,-1.633329 V 5.4860745 h 1.60533 v 6.1226515 c 0,0.791998 0.13067,1.35733 0.38667,1.69333 0.25866,0.337332 0.65733,0.506665 1.2,0.506665 0.46266,0 0.85066,-0.116 1.16799,-0.347999 0.31867,-0.230666 0.568,-0.458666 0.75333,-0.685332 V 5.4860745 H 187.996 Z M 178.092,3.1887465 c -0.33333,0 -0.596,-0.105333 -0.796,-0.317332 -0.19867,-0.210666 -0.29733,-0.487999 -0.29733,-0.830665 0,-0.330665 0.0987,-0.601331 0.29733,-0.811998 0.2,-0.211999 0.46267,-0.31733201 0.796,-0.31733201 0.31466,0 0.572,0.10533301 0.772,0.31733201 0.19866,0.210667 0.296,0.481333 0.296,0.811998 0,0.342666 -0.0973,0.619999 -0.296,0.830665 -0.2,0.211999 -0.45734,0.317332 -0.772,0.317332 z m 0.79066,11.8070385 H 177.276 V 5.4860745 h 1.60666 z m -3.18932,-8.1030475 c -0.04,-0.02533 -0.12667,-0.05867 -0.256,-0.09733 -0.13467,-0.04133 -0.31333,-0.06 -0.536,-0.06 -0.50133,0 -0.896,0.136 -1.18,0.405333 -0.284,0.270666 -0.48533,0.565332 -0.604,0.881331 v 6.9737165 h -1.60399 V 5.4860775 h 1.46533 v 1.287997 h 0.0373 c 0.0693,-0.184 0.15333,-0.366666 0.26,-0.543999 0.104,-0.179999 0.23867,-0.335999 0.396,-0.475999 0.16133,-0.137333 0.348,-0.246666 0.564,-0.326665 0.21866,-0.07867 0.48,-0.12 0.784,-0.12 0.22533,0 0.40533,0.02 0.54399,0.06133 0.13734,0.03867 0.24667,0.072 0.32534,0.09733 z m -9.33065,-0.335999 c -0.56799,0 -1.02399,0.238666 -1.36666,0.713332 -0.34533,0.474665 -0.544,1.162663 -0.59733,2.058661 h 3.46799 c 0.0133,-0.06533 0.0253,-0.159999 0.032,-0.285332 0.005,-0.126667 0.0107,-0.26 0.0107,-0.407999 0,-0.659999 -0.13467,-1.170664 -0.4,-1.534663 -0.264,-0.362666 -0.64667,-0.543999 -1.14667,-0.543999 z m 3.01066,2.139995 c 0,0.410665 -0.0133,0.762664 -0.0413,1.059997 -0.024,0.2959985 -0.0533,0.5573325 -0.0787,0.7813315 h -4.85465 c 0.0533,1.122664 0.29467,1.949329 0.72533,2.477328 0.42933,0.527998 1.04666,0.793331 1.852,0.793331 0.276,0 0.52799,-0.03467 0.75333,-0.1 0.224,-0.06533 0.41466,-0.145333 0.58266,-0.237333 0.164,-0.092 0.30667,-0.185332 0.416,-0.278666 0.11333,-0.09067 0.196,-0.165332 0.24933,-0.217332 l 0.59334,1.12933 c -0.0667,0.06667 -0.16667,0.161333 -0.29734,0.287999 -0.13066,0.124 -0.30933,0.249333 -0.53599,0.376 -0.22267,0.125333 -0.5,0.233866 -0.828,0.327065 -0.33067,0.09173 -0.72133,0.138533 -1.172,0.138533 -0.592,0 -1.12933,-0.0984 -1.61333,-0.297599 -0.48133,-0.197333 -0.89066,-0.505332 -1.22933,-0.919998 -0.336,-0.415999 -0.59733,-0.945331 -0.78266,-1.586662 -0.18534,-0.639999 -0.276,-1.40933 -0.276,-2.306662 0,-0.8453305 0.0933,-1.5759955 0.28533,-2.1906605 0.192,-0.611999 0.45466,-1.118664 0.784,-1.51333 0.33066,-0.398666 0.71066,-0.690665 1.14799,-0.882664 0.43467,-0.192 0.90667,-0.286666 1.40933,-0.286666 0.908,0 1.624,0.286666 2.14,0.861331 0.51333,0.573332 0.77066,1.434663 0.77066,2.585327 z m -7.78664,-1.901329 h -2.08 v 5.2693205 c 0,0.673332 0.0853,1.130664 0.25733,1.375997 0.17067,0.243999 0.46267,0.367999 0.872,0.367999 0.23867,0 0.444,-0.03467 0.61467,-0.1 0.17066,-0.06533 0.296,-0.126666 0.376,-0.178666 l 0.21733,1.287997 c -0.064,0.052 -0.224,0.135999 -0.476,0.247599 -0.25067,0.110933 -0.588,0.168666 -1.008,0.168666 -0.81866,0 -1.43466,-0.228666 -1.84399,-0.684265 -0.41067,-0.455998 -0.61467,-1.211997 -0.61467,-2.266661 V 6.7954045 h -1.148 v -1.070664 l 1.148,-0.238666 0.18,-2.653327 h 1.42533 v 2.653327 h 2.28 z m -6.89599,0.613332 c -0.104,-0.118666 -0.29333,-0.281333 -0.57066,-0.485332 -0.28,-0.205333 -0.644,-0.307999 -1.09067,-0.307999 -0.42399,0 -0.74666,0.1 -0.97199,0.298666 -0.22534,0.197332 -0.336,0.434665 -0.336,0.711998 0,0.358665 0.10133,0.649331 0.30666,0.882664 0.20534,0.230666 0.516,0.477332 0.94133,0.741332 l 0.596,0.357332 c 0.64533,0.382666 1.15333,0.7959985 1.52267,1.2386645 0.36933,0.442665 0.55466,1.01333 0.55466,1.713329 0,0.753331 -0.26133,1.386663 -0.78266,1.902662 -0.52134,0.514665 -1.27067,0.772264 -2.248,0.772264 -0.38266,0 -0.71866,-0.0396 -1.00933,-0.119733 -0.292,-0.07813 -0.54533,-0.171199 -0.76266,-0.276532 -0.21867,-0.106667 -0.40134,-0.221333 -0.54534,-0.345333 -0.14533,-0.126666 -0.26399,-0.242666 -0.35733,-0.349332 l 0.77333,-1.266664 c 0.08,0.07867 0.176,0.172 0.28667,0.277333 0.11333,0.106666 0.248,0.207999 0.408,0.306666 0.15733,0.1 0.33733,0.182666 0.53333,0.247999 0.19733,0.06533 0.42933,0.1 0.69333,0.1 0.47333,0 0.83867,-0.106666 1.08933,-0.318666 0.252,-0.210666 0.376,-0.469332 0.376,-0.771998 0,-0.225333 -0.028,-0.418666 -0.0907,-0.585332 -0.0587,-0.163999 -0.144,-0.313332 -0.264,-0.445332 -0.12,-0.132 -0.26667,-0.257333 -0.43867,-0.375999 -0.168,-0.118667 -0.368,-0.252 -0.592,-0.394666 l -0.59466,-0.378666 c -0.59334,-0.382666 -1.06,-0.7853315 -1.39867,-1.2093305 -0.336,-0.421332 -0.504,-0.962664 -0.504,-1.622662 0,-0.357333 0.0707,-0.683999 0.20667,-0.981331 0.14133,-0.296 0.33333,-0.553332 0.58533,-0.773332 0.25067,-0.217333 0.54667,-0.389332 0.88267,-0.513332 0.33733,-0.126666 0.69733,-0.187999 1.07999,-0.187999 0.372,0 0.68534,0.03467 0.95067,0.106666 0.264,0.07333 0.49333,0.166666 0.68533,0.278666 0.19067,0.112 0.348,0.223999 0.47333,0.338666 0.12267,0.109333 0.23067,0.205333 0.30667,0.285332 z m -7.34931,-4.21999 c -0.32933,0 -0.59067,-0.105333 -0.792,-0.317332 -0.19867,-0.210666 -0.29733,-0.487999 -0.29733,-0.830665 0,-0.330665 0.0987,-0.601331 0.29733,-0.811998 0.20133,-0.211999 0.46267,-0.31733201 0.792,-0.31733201 0.316,0 0.576,0.10533301 0.77733,0.31733201 0.196,0.210667 0.29333,0.481333 0.29333,0.811998 0,0.342666 -0.0973,0.619999 -0.29333,0.830665 -0.20133,0.211999 -0.46133,0.317332 -0.77733,0.317332 z m 0.796,11.8070385 h -1.60667 V 5.4860745 h 1.60667 z m -5.60932,0 V 8.8740665 c 0,-0.805332 -0.13334,-1.382664 -0.404,-1.733329 -0.27067,-0.350666 -0.68533,-0.525332 -1.24133,-0.525332 -0.47467,0 -0.87067,0.119999 -1.18533,0.358665 -0.32,0.236 -0.568,0.466666 -0.756,0.691999 v 7.3297155 h -1.60266 V 5.4860745 h 1.46666 v 1.070664 h 0.0387 c 0.0387,-0.08133 0.12666,-0.194666 0.25466,-0.346666 0.13334,-0.153333 0.30667,-0.297332 0.51733,-0.435999 0.212,-0.138666 0.46134,-0.259999 0.752,-0.366665 0.292,-0.105333 0.62267,-0.157333 0.992,-0.157333 0.42267,0 0.804,0.06133 1.148,0.187999 0.34266,0.124 0.63333,0.325333 0.872,0.602665 0.23733,0.278666 0.42533,0.637332 0.55733,1.079998 0.12933,0.442665 0.19466,0.986664 0.19466,1.634662 V 14.995785 Z M 134.08677,3.1887465 c -0.32799,0 -0.59199,-0.105333 -0.78933,-0.317332 -0.2,-0.210666 -0.29866,-0.487999 -0.29866,-0.830665 0,-0.330665 0.0987,-0.601331 0.29866,-0.811998 0.19734,-0.211999 0.46134,-0.31733201 0.78933,-0.31733201 0.31734,0 0.57867,0.10533301 0.77734,0.31733201 0.19466,0.210667 0.29333,0.481333 0.29333,0.811998 0,0.342666 -0.0987,0.619999 -0.29333,0.830665 -0.19867,0.211999 -0.46,0.317332 -0.77734,0.317332 z m 0.79467,11.8070385 h -1.60266 V 5.4860745 h 1.60266 z m -10.59864,0 V 8.8740665 c 0,-0.778665 -0.11333,-1.339997 -0.33867,-1.683996 -0.224,-0.342666 -0.58666,-0.514666 -1.08933,-0.514666 -0.264,0 -0.49733,0.03333 -0.70266,0.09867 -0.204,0.06667 -0.38667,0.149333 -0.54667,0.247999 -0.156,0.09867 -0.296,0.208 -0.41466,0.326666 -0.11867,0.12 -0.21867,0.224 -0.296,0.317333 v 7.3297155 h -1.604 V 5.4860775 h 1.46266 v 1.070664 h 0.0427 c 0.0653,-0.105333 0.16267,-0.233333 0.296,-0.385332 0.13333,-0.153333 0.29733,-0.297333 0.496,-0.437333 0.19733,-0.138666 0.428,-0.254666 0.69466,-0.346665 0.26267,-0.092 0.56,-0.137333 0.88934,-0.137333 1.08266,0 1.84932,0.421332 2.29866,1.266663 0.092,-0.130666 0.22,-0.271999 0.37466,-0.426665 0.16,-0.150667 0.34267,-0.289333 0.55733,-0.415999 0.20934,-0.124 0.44667,-0.226666 0.712,-0.305333 0.26134,-0.08133 0.556,-0.118666 0.87067,-0.118666 1.93066,0 2.89066,1.12133 2.89066,3.366658 v 6.3790515 h -1.60267 V 8.8740695 c 0,-0.778665 -0.13733,-1.339997 -0.416,-1.683996 -0.27599,-0.342666 -0.68533,-0.514666 -1.22666,-0.514666 -0.448,0 -0.82133,0.109333 -1.12,0.326666 -0.29733,0.218666 -0.53333,0.426666 -0.70266,0.623999 0.0253,0.147999 0.0453,0.299999 0.0587,0.466665 0.0133,0.165333 0.02,0.339999 0.02,0.523999 v 6.3790515 z m -7.82531,-7.5870485 c -0.10534,-0.118666 -0.3,-0.281333 -0.57467,-0.485332 -0.27867,-0.205333 -0.64,-0.307999 -1.09066,-0.307999 -0.42,0 -0.74533,0.1 -0.97067,0.298666 -0.224,0.197332 -0.33466,0.434665 -0.33466,0.711998 0,0.358665 0.1,0.649331 0.30666,0.882664 0.204,0.230666 0.516,0.477332 0.94,0.741332 l 0.59467,0.357332 c 0.64799,0.382666 1.15466,0.7959985 1.52532,1.2386645 0.37067,0.442665 0.55467,1.01333 0.55467,1.713329 0,0.753331 -0.26133,1.386663 -0.78133,1.902662 -0.52267,0.514665 -1.27333,0.772264 -2.248,0.772264 -0.38533,0 -0.71999,-0.0396 -1.01199,-0.119733 -0.29067,-0.07813 -0.54534,-0.171199 -0.764,-0.276532 -0.21733,-0.106667 -0.4,-0.221333 -0.544,-0.345333 -0.144,-0.126666 -0.264,-0.242666 -0.35733,-0.349332 l 0.77333,-1.266664 c 0.08,0.07867 0.17467,0.172 0.288,0.277333 0.11333,0.106666 0.248,0.207999 0.40666,0.306666 0.15867,0.1 0.336,0.182666 0.53334,0.247999 0.2,0.06533 0.42933,0.1 0.69466,0.1 0.47333,0 0.83867,-0.106666 1.08533,-0.318666 0.25333,-0.210666 0.38133,-0.469332 0.38133,-0.771998 0,-0.225333 -0.0333,-0.418666 -0.0907,-0.585332 -0.06,-0.163999 -0.14934,-0.313332 -0.268,-0.445332 -0.12,-0.132 -0.26267,-0.257333 -0.43467,-0.375999 -0.172,-0.118667 -0.36933,-0.252 -0.59466,-0.394666 l -0.59333,-0.378666 c -0.596,-0.382666 -1.06134,-0.7853315 -1.39733,-1.2093305 -0.33734,-0.421332 -0.50667,-0.962664 -0.50667,-1.622662 0,-0.357333 0.0693,-0.683999 0.20933,-0.981331 0.13734,-0.296 0.33334,-0.553332 0.58533,-0.773332 0.24934,-0.217333 0.544,-0.389332 0.88,-0.513332 0.33734,-0.126666 0.69867,-0.187999 1.08,-0.187999 0.36933,0 0.68667,0.03467 0.95066,0.106666 0.264,0.07333 0.49067,0.166666 0.68134,0.278666 0.19333,0.112 0.352,0.223999 0.47866,0.338666 0.12533,0.109333 0.22667,0.205333 0.30667,0.285332 z m -9.25331,-0.851998 c -0.56667,0 -1.02267,0.238666 -1.36533,0.713332 -0.34534,0.474665 -0.54134,1.162663 -0.59467,2.058661 h 3.46799 c 0.0133,-0.06533 0.0213,-0.159999 0.028,-0.285332 0.007,-0.126667 0.0107,-0.26 0.0107,-0.407999 0,-0.659999 -0.132,-1.170664 -0.39733,-1.534663 -0.264,-0.362666 -0.64667,-0.543999 -1.14933,-0.543999 z m 3.01332,2.139995 c 0,0.410665 -0.0147,0.762664 -0.0413,1.059997 -0.0267,0.2959985 -0.052,0.5573325 -0.0773,0.7813315 h -4.85465 c 0.0533,1.122664 0.29467,1.949329 0.72267,2.477328 0.42933,0.527998 1.04799,0.793331 1.85199,0.793331 0.27733,0 0.52933,-0.03467 0.752,-0.1 0.22533,-0.06533 0.42,-0.145333 0.58533,-0.237333 0.16533,-0.092 0.30533,-0.185332 0.41867,-0.278666 0.11066,-0.09067 0.192,-0.165332 0.24533,-0.217332 l 0.59333,1.12933 c -0.0653,0.06667 -0.164,0.161333 -0.296,0.287999 -0.13066,0.124 -0.30933,0.249333 -0.53333,0.376 -0.22533,0.125333 -0.504,0.233866 -0.83333,0.327065 -0.33067,0.09173 -0.72,0.138533 -1.16933,0.138533 -0.59467,0 -1.13333,-0.0984 -1.61466,-0.297599 -0.48267,-0.197333 -0.89067,-0.505332 -1.228,-0.919998 -0.336,-0.415999 -0.59733,-0.945331 -0.78267,-1.586662 -0.18493,-0.639999 -0.2776,-1.40933 -0.2776,-2.306662 0,-0.8453305 0.0952,-1.5759955 0.288,-2.1906605 0.19094,-0.611999 0.45094,-1.118664 0.7816,-1.51333 0.32933,-0.398666 0.71467,-0.690665 1.14933,-0.882664 0.43467,-0.192 0.90533,-0.286666 1.40667,-0.286666 0.91199,0 1.62532,0.286666 2.13999,0.861331 0.51467,0.573332 0.77333,1.434663 0.77333,2.585327 z M 98.270734,13.808721 c 0.25,0 0.474532,-0.03467 0.672399,-0.1 0.199999,-0.06533 0.370799,-0.147999 0.516132,-0.247999 0.144799,-0.09867 0.267732,-0.2 0.3672,-0.306666 0.0984,-0.105333 0.173995,-0.198666 0.225995,-0.277333 V 7.0127375 c -0.144265,-0.09333 -0.312529,-0.172 -0.505196,-0.238666 -0.191066,-0.06533 -0.432265,-0.09867 -0.722398,-0.09867 -0.368666,0 -0.716665,0.06267 -1.040131,0.188 -0.322799,0.125333 -0.604665,0.333332 -0.841597,0.622665 -0.237467,0.293333 -0.426533,0.670665 -0.566666,1.130664 -0.136533,0.461332 -0.206266,1.030664 -0.206266,1.7039965 0,0.659998 0.05627,1.211997 0.1688,1.654662 0.111866,0.441332 0.266666,0.798665 0.463999,1.069331 0.198399,0.271999 0.423998,0.465332 0.675065,0.585332 0.250532,0.117333 0.514532,0.178666 0.792664,0.178666 z M 94.50661,10.382063 c 0,-0.9653315 0.124533,-1.7719965 0.376666,-2.4186615 0.250933,-0.646665 0.573332,-1.167997 0.969198,-1.565329 0.397465,-0.395999 0.846397,-0.675999 1.347996,-0.842665 0.501466,-0.165333 1.003598,-0.247999 1.50573,-0.247999 0.303066,0 0.567598,0.02533 0.792131,0.07067 0.224933,0.04533 0.409864,0.101333 0.554129,0.169333 V 0.99008949 l 1.6052,-0.178666 V 14.995789 h -1.46507 v -1.009731 h -0.0396 c -0.0396,0.08 -0.11346,0.186666 -0.217725,0.326666 -0.10627,0.138666 -0.252001,0.277332 -0.436934,0.415999 -0.184399,0.137333 -0.416132,0.258799 -0.692665,0.357199 -0.278132,0.0984 -0.601598,0.148399 -0.971464,0.148399 -0.447866,0 -0.874398,-0.08907 -1.27853,-0.268266 -0.401599,-0.177337 -0.755198,-0.461336 -1.059998,-0.850668 -0.303065,-0.390666 -0.543731,-0.891998 -0.722798,-1.506663 -0.177199,-0.613332 -0.266266,-1.355997 -0.266266,-2.226661 z m -3.567591,4.613722 V 8.8740665 c 0,-0.805332 -0.134399,-1.382664 -0.404799,-1.733329 -0.271866,-0.350666 -0.683731,-0.525332 -1.23893,-0.525332 -0.475599,0 -0.871465,0.119999 -1.189064,0.358665 -0.316266,0.236 -0.566665,0.466666 -0.751598,0.691999 V 14.995785 H 85.748899 V 5.4860745 h 1.46613 v 1.070664 h 0.04013 c 0.0396,-0.08133 0.123866,-0.194666 0.258266,-0.346666 0.130799,-0.153333 0.302666,-0.297332 0.514132,-0.435999 0.210933,-0.138666 0.462399,-0.259999 0.752531,-0.366665 0.291733,-0.105333 0.620799,-0.157333 0.991198,-0.157333 0.422399,0 0.805198,0.06133 1.149464,0.187999 0.342665,0.124 0.634398,0.325333 0.871331,0.602665 0.237466,0.278666 0.422399,0.637332 0.553198,1.079998 0.133333,0.442665 0.199467,0.986664 0.199467,1.634662 v 6.2403855 z m -7.645847,0 h -1.467197 v -1.069731 h -0.03853 c -0.0396,0.07867 -0.125466,0.194666 -0.258399,0.346666 -0.131733,0.153333 -0.2984,0.297332 -0.504666,0.437332 -0.204666,0.137333 -0.452532,0.258666 -0.744264,0.365466 -0.289066,0.1052 -0.612932,0.158799 -0.970265,0.158799 -0.422932,0 -0.801598,-0.06347 -1.137464,-0.189066 -0.338135,-0.124533 -0.624534,-0.325866 -0.8636,-0.603198 -0.238,-0.278666 -0.419199,-0.637332 -0.543199,-1.079998 -0.127066,-0.442665 -0.189066,-0.986664 -0.189066,-1.633329 V 5.4860745 h 1.604662 v 6.1226515 c 0,0.791998 0.1292,1.35733 0.385466,1.69333 0.258266,0.337332 0.658265,0.506665 1.199464,0.506665 0.461999,0 0.852531,-0.116 1.169197,-0.347999 0.316666,-0.230666 0.566665,-0.458666 0.753198,-0.685332 V 5.4860745 h 1.604663 z m -10.61984,-3.823057 c 0,-0.739999 -0.241067,-1.3239975 -0.722799,-1.7533295 -0.482932,-0.429333 -1.17293,-0.643999 -2.069861,-0.643999 h -1.169197 v 4.7946555 h 1.070264 c 1.016664,0 1.753062,-0.202666 2.208261,-0.603999 0.455732,-0.403999 0.683332,-1.002664 0.683332,-1.793328 z M 72.416666,4.8714095 c 0,-0.633332 -0.225067,-1.154664 -0.675599,-1.563996 -0.447865,-0.409332 -1.154664,-0.614665 -2.118661,-0.614665 h -0.910931 v 4.715988 h 0.891064 c 0.924531,0 1.625063,-0.224 2.099995,-0.673332 0.476532,-0.449332 0.714132,-1.070664 0.714132,-1.863995 z m 1.742662,-0.05867 c 0,0.474666 -0.05933,0.891998 -0.178666,1.250664 -0.118267,0.355999 -0.279733,0.661332 -0.484399,0.919998 -0.205733,0.255999 -0.442666,0.465332 -0.713998,0.623998 -0.269866,0.157333 -0.550532,0.275999 -0.841198,0.355999 v 0.03867 c 0.356265,0.06667 0.690131,0.190666 0.999997,0.377332 0.310933,0.185333 0.582799,0.415999 0.811998,0.693332 0.231733,0.277332 0.416666,0.602665 0.555199,0.9799965 0.137999,0.377334 0.207866,0.790666 0.207866,1.239998 0,0.539999 -0.0928,1.034664 -0.276533,1.482663 -0.184399,0.450666 -0.472932,0.841331 -0.863598,1.170664 -0.387999,0.329332 -0.879731,0.587998 -1.474529,0.773331 -0.594799,0.184 -1.301997,0.2764 -2.119728,0.2764 H 66.988546 V 1.3274185 h 2.63386 c 0.805731,0 1.496263,0.08133 2.071328,0.246666 0.573465,0.165333 1.045864,0.398666 1.415596,0.703998 0.369333,0.302666 0.636932,0.669332 0.802665,1.098664 0.164,0.430666 0.247333,0.909331 0.247333,1.435996"
     id="path41"
     style="fill:#d3d3d3;stroke-width:1.33333" /><path
     d="m 23.258388,13.895387 c 0.04427,-0.371999 0.0704,-0.757331 0.0704,-1.150663 0,-0.214667 0.0015,-0.463999 -0.02507,-0.745332 3.317725,-0.048 6.229184,-2.4373275 6.229184,-5.1879875 0,-1.399996 -0.912531,-2.453327 -1.427596,-3.085326 0.115066,-0.02267 0.231732,-0.05067 0.349465,-0.08 0.485866,0.421332 1.864529,1.923995 1.864529,3.822657 0,3.2973255 -3.296792,6.3586515 -7.060916,6.4266505 z M 19.914663,2.4087485 c -0.062,-0.366665 -0.201599,-0.699998 -0.413999,-0.98533 0.0099,-0.336 0.1484,-0.65733201 0.689999,-0.393333 -0.293733,0.299999 -0.0672,0.829331 -0.0672,0.829331 0,0 0.599598,-0.277332 0.474532,-0.671998 0.890131,0.213333 0.251599,1.40533 -0.683332,1.22133 z m -0.770798,1.69333 c -0.119866,-0.493333 -0.370799,-0.997331 -0.692798,-1.378664 -0.293733,-0.345332 -0.778531,-0.757331 -1.429063,-0.757331 -0.298933,0 -0.798531,0.14 -1.114664,0.273333 -0.121333,-0.214667 -0.351466,-0.737332 -0.351466,-0.971998 0,-0.241333 0.407199,-0.48666601 1.187997,-0.48666601 1.717196,0 2.74586,0.77599901 2.74586,2.07866201 0,0.457332 -0.181866,0.874664 -0.345866,1.242664 z m 4.411456,22.1436785 c 0.198933,0 0.297333,0.03227 0.412399,0.07453 0.494799,1.346396 2.400527,3.88439 2.479727,3.992656 l 0.0188,0.0224 0.0292,-0.0068 c 0.466132,-0.07387 1.659329,-0.254666 2.659327,-0.254666 h 0.02347 c 0.107733,0 0.2296,0 0.309333,0.07653 0.06347,0.06573 0.09587,0.178133 0.09587,0.340133 0,0.248933 -0.105199,0.673465 -0.230266,0.854131 -0.349999,-0.381732 -0.919198,-0.552532 -1.826529,-0.552532 -0.274532,0 -0.596398,0.08227 -0.770798,0.127066 l -0.0724,0.01613 -0.08133,0.02133 0.525599,0.525065 c 0.808265,0.807732 1.507196,1.506797 1.507196,1.970795 0,0.279733 -0.272399,0.643199 -0.522798,0.806798 -0.05427,-0.853197 -0.915198,-1.989061 -1.751063,-2.62706 l -0.07133,-0.05373 -0.01467,0.297999 c -0.01147,0.2036 -0.0296,0.510399 -0.0296,0.834398 0,1.621863 -0.164133,1.866662 -0.725599,1.866662 -0.0864,0 -0.219199,-0.02507 -0.300532,-0.05627 0.317732,-0.389599 0.441199,-0.906265 0.441199,-1.811462 l -0.0041,-0.418266 -0.0053,-0.335999 c 0,-0.371333 0.04013,-0.646265 0.0688,-0.867598 l 0.01613,-0.125066 -0.08853,-0.01147 c -0.262533,-0.03693 -0.749998,-0.103066 -1.123464,-0.103066 -0.800931,0 -1.341596,0.07293 -1.736929,0.443732 -0.259332,-0.209333 -0.525465,-0.571332 -0.525465,-0.799998 0,-0.338533 0.210933,-0.364533 0.485332,-0.364533 0.140133,0 0.270399,0.02027 0.450532,0.0416 0.344799,0.0516 0.863065,0.128133 1.928662,0.128133 h 0.06667 l -0.01933,-0.06613 c -0.271332,-0.773465 -1.013464,-1.897462 -2.205728,-3.344258 0.109467,-0.387999 0.214667,-0.641198 0.587599,-0.641198 z m -10.278641,3.985456 -0.0208,0.06613 h 0.06613 c 1.066131,0 1.584796,-0.07653 1.928662,-0.128133 0.180666,-0.02133 0.310933,-0.0416 0.449999,-0.0416 0.274933,0 0.486932,0.026 0.486932,0.364533 0,0.228666 -0.267733,0.590665 -0.525999,0.799998 -0.393865,-0.370799 -0.937064,-0.443732 -1.736529,-0.443732 -0.373999,0 -0.862931,0.06613 -1.124397,0.103066 l -0.04227,0.0052 -0.04627,0.0063 0.01507,0.125066 c 0.0312,0.221333 0.0692,0.496265 0.0692,0.867598 l -0.0052,0.335999 -0.0036,0.418266 c 0,0.905197 0.124933,1.421863 0.441198,1.811462 -0.08133,0.0312 -0.214132,0.05627 -0.299999,0.05627 -0.562532,0 -0.726665,-0.244799 -0.726665,-1.866662 0,-0.323999 -0.01667,-0.630798 -0.02867,-0.834398 l -0.0156,-0.298932 -0.07133,0.05467 c -0.834932,0.637999 -1.696796,1.773863 -1.747329,2.62706 -0.252133,-0.163599 -0.525066,-0.527065 -0.525066,-0.806798 0,-0.463998 0.699465,-1.163063 1.507863,-1.970795 l 0.465599,-0.464132 0.05733,-0.06093 -0.151599,-0.03747 c -0.173467,-0.0448 -0.496399,-0.127066 -0.770798,-0.127066 -0.908931,0 -1.4755971,0.1708 -1.8266629,0.552532 C 8.9704127,31.164049 8.865213,30.739517 8.865213,30.490584 c 0,-0.162 0.032267,-0.274399 0.094266,-0.340133 0.080666,-0.07653 0.2035995,-0.07653 0.3114659,-0.07653 h 0.0224 c 1.0010651,0 2.1942621,0.1808 2.6609271,0.254666 l 0.02867,0.0068 0.01773,-0.0224 c 0.07907,-0.108266 1.985862,-2.64626 2.481194,-3.992656 0.113066,-0.04227 0.211999,-0.07453 0.410399,-0.07453 0.375466,0 0.479199,0.253199 0.588532,0.641198 -1.192664,1.446796 -1.933329,2.570793 -2.204128,3.344258 z M 8.1297592,7.4687365 c 0,-1.898662 1.3786632,-3.401325 1.8651958,-3.822657 0.1156,0.02933 0.233333,0.05733 0.349466,0.08 -0.516132,0.631999 -1.4275971,1.68533 -1.4275971,3.085326 0,2.777326 2.9675931,5.1879875 6.3259841,5.1879875 -0.02133,0.238666 -0.0328,0.487999 -0.0328,0.745332 0,0.409332 0.02187,0.790664 0.064,1.150663 C 11.474551,13.872718 8.1297592,10.790063 8.1297592,7.4687365 Z M 33.612096,13.318055 c 1.703596,2.694394 3.037459,2.648661 5.051454,2.648661 -1.667196,-1.276664 -2.769193,-2.91266 -3.294259,-3.749991 L 32.256766,7.2354035 c -0.305733,-1.537329 -1.100397,-2.975993 -2.292128,-4.045323 0.400533,-0.152 0.732798,-0.311999 0.934931,-0.462666 -2.033328,0 -4.048523,-1.031997 -5.156787,-1.031997 -0.712531,0 -1.17133,0.423999 -1.17133,0.987997 0.0468,0.626666 0.692131,1.266664 1.885862,1.266664 0.269866,0 0.616132,-0.036 0.994797,-0.09867 0.647465,0.899998 1.168264,1.71333 1.168264,2.875993 0,2.179995 -2.60786,3.8799915 -5.241187,3.8799915 -0.147333,0 -0.289466,-0.0053 -0.437999,-0.01733 -0.239599,-0.539999 -1.031197,-1.4479965 -1.031197,-2.4813275 0,-1.730662 1.129197,-3.146659 1.129197,-4.863988 0,-1.066664 -0.519865,-1.726662 -0.720398,-2.001328 0.324532,-0.29866601 0.677065,-0.66933201 0.760931,-0.91999801 -0.188533,0.08 -0.410932,0.09067 -0.737465,0.09067 -1.261996,0 -2.289594,-0.327999 -3.292125,-0.327999 -0.571865,0 -0.726131,0.175999 -0.726131,0.343999 0,0.06267 0.0095,0.125333 0.02667,0.155999 -0.214132,-0.084 -0.415199,-0.138666 -0.653731,-0.182666 -0.294266,-0.056 -0.612932,-0.084 -0.953065,-0.084 -1.21773,0 -1.651062,0.509332 -1.651062,0.94799801 0,0.370666 0.292132,1.046664 0.621865,1.561329 0.475999,-0.238666 1.045864,-0.401332 1.30733,-0.401332 0.645332,0 1.221864,0.615999 1.52653,1.346663 -0.435999,0.052 -0.519333,0.072 -0.959331,0.072 -1.186531,0 -1.993329,-0.425332 -2.158928,-0.425332 -0.01667,0 -0.04733,0.008 -0.04733,0.03467 0,0.166667 0.3348,0.606666 0.998398,0.849332 0.872931,0.318666 2.182794,0.450665 2.401061,0.486665 0,0.03867 -0.221867,0.453332 -0.468799,0.530665 -0.05253,0.01867 -0.09373,0.02 -0.155733,0.0067 -0.911998,-0.181333 -1.166664,-0.255999 -2.323461,-0.695998 -0.03587,-0.01333 -0.05667,0.008 -0.05667,0.04533 0,0.457332 1.184797,1.46933 2.246795,1.854662 -0.886398,1.133331 -1.995329,2.290661 -2.517727,4.0573235 -0.1468,0.012 -0.289999,0.01733 -0.438532,0.01733 -2.632261,0 -5.239987,-1.6999965 -5.239987,-3.8799915 0,-1.162663 0.521332,-1.975995 1.16813,-2.875993 0.379732,0.06267 0.723998,0.09867 0.994264,0.09867 1.193731,0 1.839596,-0.639998 1.887596,-1.266664 0,-0.563998 -0.459466,-0.987997 -1.173464,-0.987997 -1.107864,0 -3.1213261,1.031997 -5.1562544,1.031997 0.2021328,0.150667 0.5338653,0.310666 0.9343977,0.462666 -1.1906637,1.06933 -1.9865284,2.507994 -2.2911943,4.045323 L 3.0797768,12.216762 c -0.5238654,0.837331 -1.6290626,2.473327 -3.29679183,3.749991 2.01452833,0 3.34999173,0.04573 5.05412073,-2.648661 l 1.596396,-2.555993 c 0.1175997,0.331999 0.2639994,0.654665 0.4347989,0.970664 l -3.1749303,5.079684 c -0.5275987,0.841731 -1.6218627,2.465194 -3.29479187,3.749457 2.01199507,0 3.34945837,0.04693 5.05252077,-2.64626 l 2.7329265,-4.376256 c 0.2051995,0.217333 0.4191989,0.431999 0.6473317,0.633332 L 4.974567,20.347371 c -0.530132,0.843198 -1.6186626,2.460394 -3.2967917,3.745858 2.0145283,0 3.3514583,0.0484 5.0541207,-2.64746 l 3.759324,-6.018652 c 0.247466,0.156666 0.502132,0.309332 0.764132,0.450932 l -4.5879892,7.342782 c -0.531332,0.844798 -1.6198626,2.458794 -3.2963917,3.747857 2.0150616,0 3.3505249,0.04533 5.0541207,-2.64786 L 13.149614,16.75618 c 0.280666,0.108933 0.563465,0.209466 0.851464,0.303199 l -5.3389202,8.545312 c -0.5219987,0.832798 -1.6349292,2.473861 -3.2943917,3.746258 2.0151949,0 3.3499916,0.04533 5.0531879,-2.64626 l 5.691586,-9.108378 c 0.05733,0.0099 0.114666,0.0188 0.171466,0.03027 0.155199,0.493732 0.262399,0.951464 0.262399,1.409863 0,2.861993 -1.878128,5.39012 -4.130656,7.340649 0.142666,0.064 0.394266,0.08387 0.627065,0.08387 0.464532,0 0.766131,-0.02347 0.977064,-0.06093 -0.523999,1.18533 -1.645862,2.719726 -2.211994,3.512391 -0.736932,-0.1328 -1.810929,-0.237466 -2.5145277,-0.237466 -0.7343982,0 -0.8182647,0.432266 -0.8182647,0.815598 0,0.668265 0.3119993,1.199464 0.677065,1.495863 0.1354663,-0.341199 0.409999,-0.797465 1.7703964,-0.797465 0.02387,0 0.07293,0.0032 0.135866,0.0073 -0.398399,0.442266 -1.6410631,1.44693 -1.6410631,2.256261 0,0.536399 0.5879991,1.339597 1.3629301,1.339597 -0.0468,-0.171866 -0.04053,-0.331199 -0.04053,-0.450532 0,-0.656798 0.581199,-1.42453 1.071331,-1.958795 -0.0136,0.160399 -0.0063,0.143733 -0.0063,0.328132 0,1.551463 0.140666,2.263461 1.123997,2.263461 0.482799,0 0.816665,-0.263999 0.930665,-0.344265 -0.639599,-0.588532 -0.671865,-1.051598 -0.671865,-1.920262 0.0011,-0.226133 0.0016,-0.446933 0.0047,-0.753198 0.0021,-0.1984 -5.33e-4,-0.461466 -0.03227,-0.651999 0.352132,-0.04853 0.494798,-0.04853 0.765064,-0.04853 0,0 1.397997,-0.109866 1.734929,0.615198 0.379733,-0.347999 0.930131,-0.837997 0.930131,-1.379196 0,-0.358399 -0.169199,-0.763065 -0.889464,-0.763065 -0.272933,0 -1.130797,0.167733 -1.847462,0.167733 0.192266,-0.430132 1.051064,-1.685462 1.794262,-2.594793 0.113066,0.353199 0.287999,0.734931 0.677598,1.04693 0.05373,-0.585465 0.397999,-2.437994 1.313064,-3.520924 0.107733,0.731331 0.251599,1.483329 0.251599,3.065725 0,3.851991 -0.927198,6.696784 -2.893326,7.239982 0.255199,0.445333 0.796931,0.844798 1.35893,0.844798 0.718132,0 1.111464,-0.812398 1.509863,-1.578529 0.208266,0.565065 0.782265,1.952528 1.35933,1.952528 0.575065,0 1.149997,-1.387463 1.357863,-1.952528 0.399466,0.766131 0.791598,1.578529 1.511463,1.578529 0.559332,0 1.102531,-0.399465 1.358263,-0.844798 -1.966128,-0.543198 -2.893726,-3.387991 -2.893726,-7.239982 0,-1.582396 0.143733,-2.334394 0.25,-3.065725 0.918264,1.08293 1.261463,2.935459 1.314663,3.520924 0.389066,-0.311999 0.565065,-0.693731 0.679598,-1.04693 0.741732,0.909331 1.599463,2.164661 1.793196,2.594793 -0.717065,0 -1.575996,-0.167733 -1.848929,-0.167733 -0.719198,0 -0.887464,0.404666 -0.887464,0.763065 0,0.541199 0.549998,1.031197 0.928664,1.379196 0.336399,-0.725064 1.735862,-0.615198 1.735862,-0.615198 0.270933,0 0.412533,0 0.765732,0.04853 -0.0324,0.190533 -0.0344,0.453599 -0.03333,0.651999 0.0031,0.306265 0.0041,0.527065 0.0047,0.753198 0,0.868664 -0.0328,1.33173 -0.671865,1.920262 0.115066,0.08027 0.448399,0.344265 0.930664,0.344265 0.983865,0 1.124531,-0.711998 1.124531,-2.263461 0,-0.184399 0.0067,-0.167733 -0.0063,-0.328132 0.490132,0.534265 1.070798,1.301997 1.070798,1.958795 0,0.119333 0.0073,0.278666 -0.0412,0.450532 0.776664,0 1.365196,-0.803198 1.365196,-1.339597 0,-0.809331 -1.24373,-1.813995 -1.643196,-2.256261 0.06507,-0.0041 0.110933,-0.0073 0.136933,-0.0073 1.35933,0 1.63333,0.456266 1.770796,0.797465 0.362532,-0.296399 0.675065,-0.827598 0.675065,-1.495863 0,-0.383332 -0.08133,-0.815598 -0.817731,-0.815598 -0.703199,0 -1.775596,0.104666 -2.515061,0.237466 -0.566265,-0.792665 -1.687062,-2.327061 -2.210928,-3.512391 0.210933,0.03747 0.512399,0.06093 0.977598,0.06093 0.232799,0 0.482799,-0.01987 0.627598,-0.08387 -2.253727,-1.950529 -4.132389,-4.478656 -4.132389,-7.340649 0,-0.458399 0.108933,-0.916131 0.261999,-1.409863 0.0568,-0.01147 0.116667,-0.0204 0.172933,-0.03027 l 5.691186,9.108378 c 1.703062,2.691593 3.039059,2.64626 5.051987,2.64626 -1.658796,-1.272397 -2.772926,-2.91346 -3.292125,-3.746258 l -5.341187,-8.545312 c 0.2896,-0.09373 0.572932,-0.194266 0.852132,-0.303199 l 4.724521,7.564648 c 1.704663,2.693193 3.038526,2.64786 5.055188,2.64786 -1.676663,-1.289063 -2.765194,-2.903059 -3.295326,-3.747857 l -4.588521,-7.342782 c 0.260399,-0.1416 0.515065,-0.294266 0.761998,-0.450932 l 3.760924,6.018652 c 1.703062,2.695859 3.038525,2.64746 5.051454,2.64746 -1.675996,-1.285464 -2.764527,-2.90266 -3.295325,-3.745858 L 29.61771,14.17272 c 0.227199,-0.201333 0.443332,-0.415999 0.646398,-0.633332 l 2.732793,4.376256 c 1.704663,2.693193 3.038526,2.64626 5.053721,2.64626 -1.674529,-1.284263 -2.76626,-2.907726 -3.294792,-3.749457 l -3.174525,-5.079721 c 0.169733,-0.315999 0.316132,-0.638665 0.433332,-0.970664 l 1.597463,2.555993"
     id="path43"
     style="fill:#d3d3d3;stroke-width:1.33333" /><path
     d="m 61.0133,60.034 h 1.8719 V 35.0609 H 58.5156 V 60.034 h 2.4977"
     fill="#f2cf04"
     id="path47"
     transform="matrix(1.33333,0,0,-1.33333,-29.246147,148.31372)"
     style="filter:url(#a)" /><path
     d="m 61.0133,85.1285 h 1.8719 V 60.034 h -4.3696 v 25.0945 h 2.4977"
     fill="#ed1c24"
     id="path49"
     transform="matrix(1.33333,0,0,-1.33333,-29.246147,148.31372)"
     style="filter:url(#a)" /><path
     d="M 62.8852,109.976 V 85.0047 h -4.3696 v 24.9713 h 4.3696"
     id="path51"
     transform="matrix(1.33333,0,0,-1.33333,-29.246147,148.31372)"
     style="filter:url(#a)" /></svg>
