<?xml version="1.0" encoding="UTF-8"?>
<svg width="842.4" height="605.227" version="1.1" viewBox="0 0 842.4 605.227" xml:space="preserve" xmlns="http://www.w3.org/2000/svg" xmlns:cc="http://creativecommons.org/ns#" xmlns:dc="http://purl.org/dc/elements/1.1/" xmlns:rdf="http://www.w3.org/1999/02/22-rdf-syntax-ns#"><metadata><rdf:RDF><cc:Work rdf:about=""><dc:format>image/svg+xml</dc:format><dc:type rdf:resource="http://purl.org/dc/dcmitype/StillImage"/></cc:Work></rdf:RDF></metadata><path d="m99.6203 491.457 8.12147-1.51187c0.70307 3.91454 2.8828 5.87027 6.53893 5.87027 1.94534 0 3.398-0.37453 4.35947-1.124 0.96093-0.75147 1.44107-1.72387 1.44107-2.92133 0-0.81974-0.21094-1.46347-0.6328-1.9344-0.44534-0.4692-1.32654-0.87867-2.64574-1.22907-6.65-1.76827-10.8776-3.45213-12.6824-5.0496-2.25-1.99627-3.37493-4.73333-3.37493-8.21093 0-3.47707 1.1016-6.25974 3.30467-8.35174 2.20266-2.08933 5.40213-3.13466 9.59786-3.13466 4.00787 0 7.05427 0.78 9.14067 2.33733 2.086 1.55867 3.55053 4.072 4.39427 7.54133l-7.62867 1.7224c-0.68013-3-2.60147-4.49973-5.7656-4.49973-1.99213 0-3.4104 0.288-4.25413 0.86267-0.84374 0.57613-1.2656 1.32146-1.2656 2.23706 0 0.82294 0.38586 1.50414 1.15986 2.04427 0.77187 0.564 3.17347 1.41613 7.202 2.55307 4.52094 1.28186 7.5912 2.824 9.21147 4.6308 1.59693 1.8052 2.39533 4.20933 2.39533 7.212 0 3.61093-1.23586 6.588-3.7088 8.93333-2.47346 2.3468-5.88853 3.51867-10.248 3.51867-3.96093 0-7.1952-0.97867-9.70306-2.93587-2.50827-1.95627-4.16094-4.8104-4.95734-8.56" fill="#79bf38"/><g fill="#d3d3d3"><path d="m154.921 488.399 5.09733 0.8084c-0.58533 4.45307-2.056 7.85147-4.412 10.1957-2.356 2.34374-5.18533 3.51614-8.49066 3.51614-4.00667 0-7.30667-1.6468-9.896-4.9416-2.58934-3.29067-3.88534-8.16147-3.88534-14.6068 0-6.4916 1.30667-11.3599 3.92-14.6064 2.61334-3.24534 5.97067-4.86934 10.0733-4.86934 3.164 0 5.82933 0.984 7.99733 2.95334 2.168 1.968 3.556 4.92133 4.16667 8.85893l-5.028 0.91453c-0.492-2.52026-1.348-4.40413-2.56667-5.6508-1.21867-1.24933-2.684-1.87333-4.39467-1.87333-2.55466 0-4.66933 1.132-6.34533 3.39333-1.676 2.26254-2.51333 5.8532-2.51333 10.7745 0 5.08693 0.80266 8.7656 2.408 11.0401 1.60533 2.27347 3.66133 3.40933 6.17066 3.40933 1.968 0 3.64934-0.75466 5.044-2.26826 1.39467-1.5104 2.28-3.85987 2.65467-7.04787"/><path d="m164.413 502.075v-51.5399h5.168v18.4933c1.21867-1.712 2.596-2.99467 4.13067-3.84934 1.53466-0.856 3.22933-1.284 5.08-1.284 3.25733 0 5.83066 1.036 7.71733 3.112 1.88533 2.07334 2.82933 5.87574 2.82933 11.408v23.6599h-5.168v-23.6599c0-3.23493-0.57466-5.55466-1.72266-6.96133s-2.72934-2.10933-4.74534-2.10933c-2.25066 0-4.16666 0.90266-5.748 2.70666-1.58266 1.8052-2.37333 5.00414-2.37333 9.59734v20.4265h-5.168"/><path d="m212.296 457.425v-7.20667h5.41467v7.20667zm-10.7573 0v-7.20667h5.41333v7.20667zm15.7493 44.6492v-5.48533c-1.19466 2.10933-2.60133 3.69213-4.21866 4.7468-1.61734 1.05466-3.44534 1.5828-5.484 1.5828-2.41467 0-4.47734-0.652-6.188-1.95094-1.71067-1.30266-2.85333-2.948-3.42667-4.9396-0.576-1.99373-0.86133-4.71253-0.86133-8.15786v-23.1317h5.168v20.7068c0 3.84374 0.19333 6.41614 0.58 7.7172 0.38666 1.3 1.10133 2.34374 2.144 3.128 1.04266 0.78654 2.232 1.17867 3.568 1.17867 2.484 0 4.52266-1.02027 6.11733-3.0588 1.35867-1.7584 2.03867-4.9812 2.03867-9.66773v-20.0041h5.204v37.3359h-4.64134"/><path d="m229.909 502.075v-51.5399h5.168v51.5399h-5.168"/><path d="m247.065 479.82h17.0867c-0.23466-3.23333-0.92666-5.64786-2.07466-7.24106-1.664-2.32147-3.78534-3.48147-6.36267-3.48147-2.32133 0-4.30133 0.96667-5.94133 2.9012-1.64134 1.93227-2.544 4.54013-2.708 7.82133zm17.0507 10.2308 5.344 0.80934c-0.89066 3.98386-2.50133 6.99066-4.83333 9.01613-2.33333 2.0292-5.22133 3.04267-8.66667 3.04267-4.336 0-7.84533-1.6468-10.5293-4.9416-2.684-3.29067-4.02533-8.04374-4.02533-14.2547 0-6.44533 1.35333-11.3599 4.06133-14.7479 2.70667-3.38666 6.13467-5.08 10.2827-5.08 3.96 0 7.26533 1.664 9.91466 4.992 2.648 3.328 3.972 8.14414 3.972 14.4493l-0.0347 1.688h-22.852c0.21066 4.1948 1.18266 7.3584 2.91733 9.49173 1.73467 2.13227 3.844 3.19893 6.32933 3.19893 3.88934 0 6.596-2.55466 8.12-7.664"/><path d="m276.035 502.075v-37.3359h4.676v5.66c1.19467-2.62533 2.28933-4.36533 3.28667-5.22 0.996-0.856 2.11466-1.284 3.35733-1.284 1.73467 0 3.504 0.68 5.30933 2.03867l-1.75866 5.872c-1.28934-0.91467-2.544-1.372-3.76134-1.372-1.10266 0-2.10933 0.38667-3.024 1.16-0.91333 0.77347-1.55866 1.85213-1.93333 3.2344-0.656 2.41507-0.984 4.98013-0.984 7.70053v19.5463h-5.168"/></g><path d="m295.439 464.739h4.5v-2.81333c0-3.39733 0.32267-5.85867 0.968-7.38267 0.64667-1.52266 1.69067-2.71866 3.136-3.58533 1.44533-0.868 3.224-1.30133 5.33733-1.30133 2.30267 0 4.55734 0.42266 6.76534 1.26533l-1.05467 6.856c-1.31333-0.37467-2.56667-0.56267-3.76133-0.56267-1.14934 0-1.98134 0.33067-2.496 0.98934-0.516 0.66-0.77467 1.95466-0.77467 3.884v2.65066h6.048v7.7692h-6.048v29.5667h-8.12v-29.5667h-4.5v-7.7692" fill="#79bf38"/><g fill="#d3d3d3"><path d="m324.44 483.389c0 4.83333 0.87867 8.4296 2.636 10.788 1.75734 2.3588 3.93734 3.53746 6.53867 3.53746 2.43866 0 4.52933-1.19066 6.276-3.57346 1.74533-2.3812 2.61866-5.96507 2.61866-10.752 0-4.8104-0.87866-8.39587-2.636-10.7532-1.75866-2.35867-3.93733-3.53867-6.54-3.53867-2.45999 0-4.55733 1.18533-6.29199 3.5548-1.736 2.37187-2.60134 5.94907-2.60134 10.7371zm-5.30933 0.0177c0-6.44587 1.35333-11.3095 4.06133-14.5909 2.70667-3.28134 6.13467-4.92134 10.2827-4.92134 4.07866 0 7.488 1.64 10.2307 4.92134 2.74134 3.28146 4.11334 8.01586 4.11334 14.2039 0 6.70267-1.348 11.6948-4.04267 14.9761-2.696 3.2812-6.13067 4.9228-10.3013 4.9228-4.10133 0-7.51867-1.6468-10.248-4.9416-2.73067-3.29067-4.096-8.14947-4.096-14.5703"/><path d="m353.936 502.075v-37.3359h4.67467v5.66c1.196-2.62533 2.29066-4.36533 3.288-5.22 0.996-0.856 2.11466-1.284 3.35733-1.284 1.73467 0 3.50267 0.68 5.308 2.03867l-1.75733 5.872c-1.28934-0.91467-2.544-1.372-3.76134-1.372-1.10266 0-2.10933 0.38667-3.024 1.16-0.91333 0.77347-1.55866 1.85213-1.93333 3.2344-0.656 2.41507-0.984 4.98013-0.984 7.70053v19.5463h-5.168"/><path d="m371.584 490.894 5.168-0.98387c0.304 2.63587 1.13467 4.59587 2.49067 5.88013 1.356 1.28294 3.156 1.924 5.4 1.924 2.24533 0 3.98133-0.55626 5.20933-1.6692 1.228-1.1136 1.84133-2.5256 1.84133-4.2376 0-1.476-0.52666-2.62386-1.58266-3.44373-0.72534-0.56293-2.484-1.26667-5.27334-2.11093-4.03066-1.24107-6.72666-2.29587-8.08533-3.164-1.36-0.86667-2.41467-2.02654-3.164-3.47974-0.75067-1.4536-1.12533-3.10573-1.12533-4.95733 0-3.1868 1.02-5.77747 3.05866-7.76947 2.03867-1.992 4.864-2.988 8.47334-2.988 2.272 0 4.27066 0.41067 5.99333 1.23067s3.04133 1.92133 3.956 3.304c0.91333 1.38267 1.54667 3.364 1.89733 5.94107l-5.06266 0.84426c-0.46934-4.07733-2.684-6.11733-6.644-6.11733-2.24934 0-3.92534 0.44933-5.02667 1.348-1.10267 0.89867-1.65333 2.048-1.65333 3.44907 0 1.3776 0.528 2.464 1.58533 3.25626 0.63333 0.46667 2.512 1.21347 5.63467 2.24107 4.296 1.36147 7.07333 2.44947 8.33466 3.25733 1.26 0.812 2.24134 1.91507 2.94134 3.312 0.70133 1.39734 1.05066 3.0588 1.05066 4.9828 0 3.5692-1.13066 6.45734-3.392 8.664-2.26266 2.2068-5.34933 3.31094-9.264 3.31094-7.336 0-11.5893-4.00827-12.7613-12.0244"/><path d="m423.159 488.399 5.096 0.8084c-0.58534 4.45307-2.056 7.85147-4.41067 10.1957-2.356 2.34374-5.18533 3.51614-8.49067 3.51614-4.008 0-7.30666-1.6468-9.896-4.9416-2.59066-3.29067-3.88533-8.16147-3.88533-14.6068 0-6.4916 1.30667-11.3599 3.92-14.6064 2.61333-3.24534 5.97067-4.86934 10.072-4.86934 3.164 0 5.83067 0.984 7.99867 2.95334 2.16666 1.968 3.556 4.92133 4.16666 8.85893l-5.02933 0.91453c-0.49067-2.52026-1.34667-4.40413-2.56533-5.6508-1.21867-1.24933-2.684-1.87333-4.39467-1.87333-2.55467 0-4.67067 1.132-6.34533 3.39333-1.676 2.26254-2.51334 5.8532-2.51334 10.7745 0 5.08693 0.80267 8.7656 2.408 11.0401 1.604 2.27347 3.66134 3.40933 6.16934 3.40933 1.96933 0 3.65066-0.75466 5.04533-2.26826 1.39333-1.5104 2.28-3.85987 2.65467-7.04787"/><path d="m432.651 502.075v-51.5399h5.16666v18.4933c1.21867-1.712 2.59734-2.99467 4.132-3.84934 1.53467-0.856 3.228-1.284 5.07867-1.284 3.25867 0 5.832 1.036 7.71867 3.112 1.88666 2.07334 2.82933 5.87574 2.82933 11.408v23.6599h-5.16667v-23.6599c0-3.23493-0.576-5.55466-1.724-6.96133-1.14933-1.40667-2.72933-2.10933-4.74533-2.10933-2.24933 0-4.16667 0.90266-5.748 2.70666-1.58267 1.8052-2.37467 5.00414-2.37467 9.59734v20.4265h-5.16666"/><path d="m485.527 502.075v-5.48533c-1.196 2.10933-2.60266 3.69213-4.22 4.7468-1.616 1.05466-3.44533 1.5828-5.484 1.5828-2.41333 0-4.476-0.652-6.18666-1.95094-1.712-1.30266-2.85467-2.948-3.42933-4.9396-0.57334-1.99373-0.86-4.71253-0.86-8.15786v-23.1317h5.16666v20.7068c0 3.84374 0.192 6.41614 0.58 7.7172 0.38533 1.3 1.10133 2.34374 2.144 3.128 1.044 0.78654 2.23467 1.17867 3.56933 1.17867 2.48534 0 4.524-1.02027 6.11734-3.0588 1.36-1.7584 2.04-4.9812 2.04-9.66773v-20.0041h5.20266v37.3359h-4.64"/><path d="m498.323 502.075v-37.3359h4.67467v5.27334c1.12267-2.04934 2.49733-3.58267 4.12533-4.596 1.62534-1.01467 3.48934-1.52134 5.596-1.52134 1.63867 0 3.15334 0.32267 4.544 0.96667 1.39334 0.64533 2.516 1.48933 3.37067 2.53067 0.85333 1.044 1.492 2.39733 1.91333 4.06133 0.42 1.664 0.63067 4.21867 0.63067 7.664v22.9572h-5.16667v-22.7359c0-2.74533-0.23466-4.75213-0.704-6.0188-0.468-1.26506-1.20266-2.2452-2.19733-2.93853-0.99733-0.69067-2.15067-1.03733-3.464-1.03733-2.484 0-4.46267 0.92666-5.94 2.78106-1.476 1.85214-2.216 5.03227-2.216 9.536v20.4135h-5.16667"/><path d="m534.427 482.739c0 4.90934 0.81067 8.4932 2.43334 10.7495 1.61866 2.25573 3.604 3.38227 5.952 3.38227 2.34933 0 4.344-1.1036 5.99066-3.312 1.64267-2.20934 2.46534-5.7224 2.46534-10.5385 0-4.7-0.84667-8.1948-2.536-10.4864-1.69334-2.28946-3.748-3.43613-6.16667-3.43613-2.16133 0-4.05733 1.14667-5.69067 3.43613-1.632 2.2916-2.448 5.6932-2.448 10.2052zm-4.288 22.4292 5.06134 0.91454c0.23466 2.00413 0.93866 3.4948 2.10933 4.47346 1.172 0.9776 2.80267 1.46814 4.888 1.46814 2.27467 0 4.084-0.5468 5.43067-1.6348 1.348-1.09067 2.268-2.71467 2.76-4.8704 0.30533-1.31347 0.45866-4.07854 0.45866-8.29894-1.12533 1.6068-2.39066 2.8172-3.79733 3.63227-1.40667 0.81467-2.96533 1.2224-4.67733 1.2224-3.656 0-6.68934-1.54627-9.104-4.64107-2.76534-3.56306-4.148-8.33226-4.148-14.3084 0-4.00773 0.60933-7.512 1.828-10.512 1.21866-2.99973 2.81733-5.2024 4.79733-6.60906 1.98133-1.40667 4.20267-2.10934 6.664-2.10934 1.804 0 3.45067 0.44267 4.93733 1.32667 1.48934 0.88533 2.80667 2.212 3.956 3.98133v-4.464h4.78134v32.2735c0 5.74107-0.46934 9.83693-1.40667 12.2864s-2.472 4.3828-4.604 5.8016c-2.13333 1.4172-4.70133 2.12653-7.70133 2.12653-3.96 0-7.008-1.06666-9.14-3.1984-2.13334-2.13386-3.164-5.08706-3.09334-8.8604"/><path d="m561.989 490.894 5.16933-0.98387c0.30267 2.63587 1.13334 4.59587 2.48934 5.88013 1.35733 1.28294 3.15733 1.924 5.40133 1.924 2.24533 0 3.98133-0.55626 5.208-1.6692 1.22667-1.1136 1.84133-2.5256 1.84133-4.2376 0-1.476-0.52533-2.62386-1.58-3.44373-0.72666-0.56293-2.48533-1.26667-5.27333-2.11093-4.032-1.24107-6.72667-2.29587-8.08667-3.164-1.35866-0.86667-2.41333-2.02654-3.164-3.47974-0.74933-1.4536-1.12533-3.10573-1.12533-4.95733 0-3.1868 1.01867-5.77747 3.05733-7.76947 2.04-1.992 4.86534-2.988 8.47467-2.988 2.27333 0 4.27067 0.41067 5.992 1.23067 1.724 0.82 3.04133 1.92133 3.956 3.304 0.91333 1.38267 1.54667 3.364 1.89867 5.94107l-5.06267 0.84426c-0.46933-4.07733-2.68267-6.11733-6.644-6.11733-2.24933 0-3.92667 0.44933-5.028 1.348s-1.652 2.048-1.652 3.44907c0 1.3776 0.52667 2.464 1.584 3.25626 0.636 0.46667 2.51333 1.21347 5.636 2.24107 4.29333 1.36147 7.072 2.44947 8.33333 3.25733 1.26267 0.812 2.24134 1.91507 2.94267 3.312 0.7 1.39734 1.052 3.0588 1.052 4.9828 0 3.5692-1.13333 6.45734-3.39333 8.664-2.264 2.2068-5.34934 3.31094-9.264 3.31094-7.33467 0-11.5907-4.00827-12.7627-12.0244"/></g><path d="m590.677 502.075v-7.7l11.4813-16.076c1.888-2.61453 3.276-4.476 4.15867-5.57973-0.93467 0.0704-2.17734 0.1172-3.724 0.1412l-10.7907 0.0693v-8.19067h25.312v6.996l-11.708 16.4519-4.112 5.45053c2.24933-0.16346 3.64533-0.2464 4.184-0.2464h12.5493v8.68387h-27.3507" fill="#79bf38"/><g fill="#d3d3d3"><path d="m626.924 479.82h17.0867c-0.23467-3.23333-0.92667-5.64786-2.076-7.24106-1.664-2.32147-3.784-3.48147-6.36133-3.48147-2.32134 0-4.30267 0.96667-5.94267 2.9012-1.64133 1.93227-2.54267 4.54013-2.70667 7.82133zm17.0493 10.2308 5.344 0.80934c-0.89067 3.98386-2.50267 6.99066-4.83334 9.01613-2.33333 2.0292-5.22133 3.04267-8.66666 3.04267-4.336 0-7.84534-1.6468-10.528-4.9416-2.68534-3.29067-4.02667-8.04374-4.02667-14.2547 0-6.44533 1.35467-11.3599 4.06-14.7479 2.708-3.38666 6.136-5.08 10.284-5.08 3.96133 0 7.26533 1.664 9.91467 4.992 2.648 3.328 3.97333 8.14414 3.97333 14.4493l-0.036 1.688h-22.852c0.21067 4.1948 1.18533 7.3584 2.92 9.49173 1.73333 2.13227 3.84267 3.19893 6.328 3.19893 3.89067 0 6.596-2.55466 8.11867-7.664"/><path d="m655.893 502.075v-37.3359h4.67466v5.27334c1.12267-2.04934 2.49734-3.58267 4.12534-4.596 1.624-1.01467 3.48933-1.52134 5.596-1.52134 1.63733 0 3.15333 0.32267 4.544 0.96667 1.39333 0.64533 2.516 1.48933 3.36933 2.53067 0.85467 1.044 1.492 2.39733 1.91467 4.06133 0.41866 1.664 0.63066 4.21867 0.63066 7.664v22.9572h-5.16666v-22.7359c0-2.74533-0.23467-4.75213-0.704-6.0188-0.468-1.26506-1.20267-2.2452-2.19734-2.93853-0.99733-0.69067-2.152-1.03733-3.464-1.03733-2.484 0-4.464 0.92666-5.94 2.78106-1.476 1.85214-2.216 5.03227-2.216 9.536v20.4135h-5.16666"/><path d="m700.26 496.415 0.704 5.58907c-1.43066 0.37507-2.71866 0.56307-3.868 0.56307-1.804 0-3.25733-0.35894-4.35866-1.07347-1.10134-0.7136-1.86-1.69213-2.268-2.93493-0.412-1.24267-0.61467-3.71454-0.61467-7.4172v-21.4812h-3.79733v-4.92134h3.79733v-9.24666l5.16667-3.796v13.0427h5.23866v4.92134h-5.23866v21.8317c0 2.01613 0.15333 3.31613 0.45733 3.90267 0.44533 0.84426 1.276 1.2656 2.49467 1.2656 0.58666 0 1.34933-0.0812 2.28666-0.24534"/><path d="m705.145 502.075v-37.3359h4.67733v5.66c1.196-2.62533 2.28933-4.36533 3.28667-5.22 0.99466-0.856 2.11466-1.284 3.35733-1.284 1.73333 0 3.50533 0.68 5.30933 2.03867l-1.75733 5.872c-1.28933-0.91467-2.54533-1.372-3.764-1.372-1.10133 0-2.10933 0.38667-3.02267 1.16-0.91466 0.77347-1.55733 1.85213-1.932 3.2344-0.65733 2.41507-0.98533 4.98013-0.98533 7.70053v19.5463h-5.16933"/><path d="m744.839 502.075v-5.48533c-1.196 2.10933-2.60134 3.69213-4.21867 4.7468-1.61733 1.05466-3.44533 1.5828-5.484 1.5828-2.41466 0-4.47733-0.652-6.188-1.95094-1.71066-1.30266-2.85466-2.948-3.42933-4.9396-0.57333-1.99373-0.86-4.71253-0.86-8.15786v-23.1317h5.16667v20.7068c0 3.84374 0.19333 6.41614 0.58133 7.7172 0.38533 1.3 1.10133 2.34374 2.14267 3.128 1.04399 0.78654 2.23466 1.17867 3.57066 1.17867 2.484 0 4.52267-1.02027 6.11733-3.0588 1.35867-1.7584 2.03867-4.9812 2.03867-9.66773v-20.0041h5.20267v37.3359h-4.64"/><path d="m757.669 502.075v-37.3359h4.64v5.20267c1.032-1.93333 2.352-3.424 3.96667-4.47333 1.61467-1.048 3.38267-1.57334 5.3-1.57334 2.15333 0 3.97067 0.55334 5.45733 1.66134 1.488 1.10666 2.54534 2.72266 3.17734 4.844 1.22133-2.168 2.628-3.79467 4.216-4.87867 1.58666-1.08533 3.344-1.62667 5.27333-1.62667 2.94 0 5.256 0.996 6.948 2.988 1.69333 1.992 2.54267 5.18 2.54267 9.5628v25.6291h-5.16934v-23.5437c0-2.676-0.19333-4.5708-0.584-5.68534-0.388-1.11346-1.01866-1.97613-1.89066-2.5868-0.872-0.60933-1.84934-0.91466-2.932-0.91466-2.24 0-4.06534 0.88533-5.47867 2.6572-1.41467 1.7708-2.12267 4.5572-2.12267 8.3588v21.7145h-5.16666v-24.2839c0-3.09573-0.47734-5.27853-1.42534-6.54533-0.94933-1.268-2.25466-1.90133-3.91866-1.90133-2.36667 0-4.23734 0.956-5.60934 2.86813-1.36933 1.91293-2.05466 5.40253-2.05466 10.4703v19.3921h-5.16934"/><path d="m100.042 578.894 5.16827-0.98386c0.3036 2.63586 1.13386 4.59586 2.49013 5.88013 1.35627 1.28293 3.1568 1.924 5.40107 1.924 2.2448 0 3.9812-0.55627 5.2088-1.6692 1.22706-1.1136 1.8412-2.5256 1.8412-4.2376 0-1.476-0.52707-2.62387-1.58187-3.44373-0.72653-0.56294-2.48427-1.26667-5.27333-2.11094-4.03134-1.24106-6.72707-2.29586-8.086-3.164-1.35934-0.86666-2.414-2.02653-3.164-3.47973-0.75054-1.4536-1.12507-3.10573-1.12507-4.95733 0-3.18694 1.01933-5.7776 3.0584-7.76974 2.03907-1.99173 4.86347-2.988 8.47293-2.988 2.2724 0 4.27134 0.41094 5.99427 1.23067 1.7224 0.8204 3.04053 1.92133 3.95467 3.30427 0.914 1.3828 1.5468 3.364 1.8984 5.94106l-5.06254 0.84427c-0.4692-4.0776-2.6844-6.1172-6.64426-6.1172-2.25 0-3.926 0.44893-5.0276 1.348-1.102 0.8984-1.652 2.04787-1.652 3.44893 0 1.3776 0.52813 2.464 1.58426 3.25627 0.6344 0.46667 2.51254 1.21347 5.63547 2.24107 4.29533 1.36146 7.07293 2.44946 8.3344 3.25733 1.2604 0.812 2.24067 1.91507 2.9416 3.312 0.70053 1.39733 1.05107 3.0588 1.05107 4.9828 0 3.5692-1.13067 6.45733-3.39267 8.664-2.26253 2.2068-5.34947 3.31093-9.2636 3.31093-7.33587 0-11.5901-4.00826-12.762-12.0244"/><path d="m146.624 545.425v-7.20626h5.41466v7.20626zm-10.7573 0v-7.20626h5.41334v7.20626zm15.7493 44.6495v-5.48534c-1.19467 2.10934-2.60134 3.69214-4.21867 4.7468-1.61733 1.05467-3.44533 1.5828-5.484 1.5828-2.41333 0-4.47733-0.652-6.188-1.95093-1.71067-1.30267-2.85293-2.948-3.42747-4.94013-0.5744-1.9932-0.86093-4.712-0.86093-8.15734v-23.1317h5.1684v20.7068c0 3.84373 0.19333 6.4156 0.58 7.7172 0.38667 1.3 1.10133 2.34373 2.144 3.128 1.04267 0.78653 2.232 1.17867 3.568 1.17867 2.484 0 4.52267-1.02027 6.11733-3.0588 1.35867-1.7584 2.04-4.9812 2.04-9.66774v-20.0041h5.20267v37.3359h-4.64133"/><path d="m167.824 571.441c0 4.82814 0.83866 8.41467 2.51466 10.7573 1.67734 2.34426 3.62934 3.51613 5.85734 3.51613 2.204 0 4.116-1.12547 5.73466-3.37493 1.61734-2.25054 2.42667-5.648 2.42667-10.1959 0-5.22507-0.80933-9.04013-2.42667-11.4427-1.61866-2.40106-3.66-3.60373-6.12133-3.60373-2.18133 0-4.05867 1.15573-5.62933 3.4636-1.57067 2.30827-2.356 5.93493-2.356 10.8801zm16.4173 18.6333v-4.7104c-0.93733 1.80373-2.144 3.18133-3.62133 4.1292-1.476 0.95053-3.07067 1.42546-4.78134 1.42546-3.60933 0-6.732-1.70666-9.368-5.11506-2.63733-3.412-3.956-8.2104-3.956-14.3968 0-4.2428 0.58534-7.84014 1.75467-10.7939 1.17067-2.95307 2.732-5.14373 4.68533-6.5744 1.95467-1.4292 4.12534-2.14427 6.512-2.14427 1.70667 0 3.292 0.452 4.75467 1.35467 1.46267 0.9016 2.67333 2.16147 3.63333 3.77867v-18.4932h5.23867v51.54h-4.852"/><path d="m202.893 590.075-9.40533-37.3359h5.36266l4.876 21.5505 1.80133 8.01614 1.62-7.7 4.85734-21.8667h5.356l4.556 21.6557 1.54133 7.1364 1.75333-7.2068 5.22534-21.5853h5.06266l-9.55733 37.3359h-5.40267l-4.88666-22.3599-1.16-6.36253-6.188 28.7224h-5.412"/><path d="m254.905 545.425v-7.20626h5.41466v7.20626zm-10.7573 0v-7.20626h5.41334v7.20626zm15.7493 44.6495v-5.48534c-1.19467 2.10934-2.60134 3.69214-4.21867 4.7468-1.61733 1.05467-3.44533 1.5828-5.484 1.5828-2.41467 0-4.47733-0.652-6.188-1.95093-1.71067-1.30267-2.85333-2.948-3.42667-4.94013-0.576-1.9932-0.86133-4.712-0.86133-8.15734v-23.1317h5.168v20.7068c0 3.84373 0.19333 6.4156 0.58 7.7172 0.38667 1.3 1.10133 2.34373 2.144 3.128 1.04267 0.78653 2.232 1.17867 3.568 1.17867 2.484 0 4.52267-1.02027 6.11733-3.0588 1.35867-1.7584 2.03867-4.9812 2.03867-9.66774v-20.0041h5.204v37.3359h-4.64133"/><path d="m272.695 590.075v-37.3359h4.676v5.65987c1.19467-2.62494 2.29067-4.36507 3.28667-5.21974 0.996-0.85626 2.11466-1.2844 3.35733-1.2844 1.73467 0 3.504 0.68014 5.30933 2.03907l-1.75866 5.87187c-1.288-0.91467-2.54267-1.37187-3.76134-1.37187-1.10266 0-2.10933 0.3864-3.024 1.15987-0.91333 0.77346-1.55866 1.85213-1.93333 3.2344-0.656 2.41506-0.984 4.98013-0.984 7.7v19.5468h-5.168"/><path d="m306.039 584.415 0.70267 5.58907c-1.42934 0.37506-2.71867 0.56306-3.86667 0.56306-1.80533 0-3.25867-0.35893-4.36-1.07346-1.10133-0.7136-1.85733-1.69214-2.26667-2.93494-0.41066-1.24266-0.616-3.71453-0.616-7.4172v-21.4812h-3.79733v-4.92133h3.79733v-9.24693l5.168-3.79574v13.0427h5.23867v4.92133h-5.23867v21.8317c0 2.01613 0.152 3.31613 0.45734 3.90266 0.444 0.84427 1.27733 1.2656 2.496 1.2656 0.58533 0 1.348-0.0812 2.28533-0.24533"/><path d="m324.616 584.415 0.704 5.58907c-1.43066 0.37506-2.72 0.56306-3.868 0.56306-1.80533 0-3.25733-0.35893-4.35866-1.07346-1.10267-0.7136-1.85867-1.69214-2.268-2.93494-0.40934-1.24266-0.61467-3.71453-0.61467-7.4172v-21.4812h-3.79733v-4.92133h3.79733v-9.24693l5.168-3.79574v13.0427h5.23733v4.92133h-5.23733v21.8317c0 2.01613 0.152 3.31613 0.456 3.90266 0.44533 0.84427 1.27733 1.2656 2.49733 1.2656 0.58534 0 1.34667-0.0812 2.284-0.24533"/><path d="m333.371 567.82h17.0853c-0.23333-3.23333-0.92667-5.64787-2.07333-7.24107-1.66534-2.32146-3.78534-3.48133-6.364-3.48133-2.32 0-4.30134 0.96667-5.94134 2.90107-1.64 1.93226-2.544 4.54013-2.70666 7.82133zm17.0507 10.2308 5.344 0.80933c-0.892 3.98387-2.50266 6.99067-4.83466 9.01614-2.332 2.0292-5.22 3.04266-8.66534 3.04266-4.33733 0-7.84666-1.6468-10.5293-4.9416-2.684-3.29066-4.02533-8.04373-4.02533-14.2547 0-6.44534 1.35333-11.3599 4.06-14.748 2.70666-3.3864 6.13466-5.08014 10.284-5.08014 3.96 0 7.264 1.664 9.91333 4.99214 2.648 3.32813 3.97333 8.14426 3.97333 14.4495l-0.036 1.688h-22.8507c0.21067 4.1948 1.18266 7.3584 2.91733 9.49174 1.73467 2.13226 3.844 3.19893 6.328 3.19893 3.89067 0 6.59733-2.55467 8.12133-7.664"/><path d="m362.375 590.075v-37.3359h4.64v5.20253c1.02933-1.93333 2.35066-3.42386 3.96666-4.47333 1.61467-1.048 3.38-1.57347 5.29867-1.57347 2.15333 0 3.972 0.5536 5.45867 1.66147 1.48533 1.1068 2.544 2.72293 3.176 4.84427 1.224-2.16827 2.628-3.7948 4.216-4.87867 1.588-1.08547 3.34533-1.62707 5.27333-1.62707 2.94 0 5.256 0.99627 6.94933 2.988 1.69334 1.99214 2.54 5.18027 2.54 9.56307v25.6291h-5.168v-23.5437c0-2.676-0.19466-4.5708-0.58266-5.68533-0.38934-1.1136-1.01867-1.97613-1.89067-2.58707-0.872-0.60933-1.85067-0.91453-2.93467-0.91453-2.23866 0-4.064 0.88547-5.47866 2.65733-1.41334 1.7708-2.12 4.5572-2.12 8.3588v21.7145h-5.168v-24.2839c0-3.09627-0.47467-5.27853-1.424-6.5452-0.94934-1.26827-2.256-1.9016-3.92-1.9016-2.368 0-4.236 0.95627-5.608 2.86827-1.37067 1.91293-2.056 5.40253-2.056 10.4703v19.3921h-5.168"/><path d="m416.192 571.125c0 3.86667 0.352 6.76147 1.05733 8.6828 0.704 1.92293 1.70267 3.38813 2.996 4.3948 1.292 1.00787 2.72667 1.512 4.29867 1.512 2.13867 0 4.03733-1.2 5.69333-3.60413 1.656-2.40107 2.484-5.9932 2.484-10.7745 0-4.89893-0.8-8.49626-2.396-10.7932-1.59866-2.2964-3.56-3.44533-5.88666-3.44533-2.13867 0-4.048 1.20267-5.728 3.60373-1.68 2.40254-2.51867 5.8776-2.51867 10.4239zm0.0773 18.9495h-4.81733v-51.54h5.204v18.3869c1.10133-1.68693 2.34933-2.94693 3.744-3.78027 1.39333-0.83066 2.94667-1.2468 4.65733-1.2468 2.39067 0 4.56534 0.71507 6.52267 2.14427 1.956 1.43067 3.52 3.5984 4.69333 6.50413 1.172 2.90627 1.75734 6.43334 1.75734 10.5823 0 6.32813-1.328 11.2095-3.97867 14.6417-2.65333 3.4344-5.752 5.152-9.29733 5.152-1.78267 0-3.38667-0.464-4.80667-1.388-1.42-0.92706-2.64667-2.30413-3.67867-4.13226v4.676"/><path d="m448.227 567.82h17.0853c-0.23333-3.23333-0.92667-5.64787-2.07467-7.24107-1.664-2.32146-3.784-3.48133-6.36266-3.48133-2.32 0-4.30134 0.96667-5.94267 2.90107-1.64 1.93226-2.54267 4.54013-2.70533 7.82133zm17.0493 10.2308 5.344 0.80933c-0.89067 3.98387-2.50134 6.99067-4.83333 9.01614-2.33334 2.0292-5.22134 3.04266-8.66667 3.04266-4.336 0-7.84533-1.6468-10.5293-4.9416-2.684-3.29066-4.02534-8.04373-4.02534-14.2547 0-6.44534 1.35334-11.3599 4.06134-14.748 2.70666-3.3864 6.13333-5.08014 10.2827-5.08014 3.96 0 7.26534 1.664 9.91333 4.99214 2.64934 3.32813 3.97467 8.14426 3.97467 14.4495l-0.0373 1.688h-22.8507c0.21067 4.1948 1.18267 7.3584 2.91867 9.49174 1.73467 2.13226 3.844 3.19893 6.328 3.19893 3.88933 0 6.596-2.55467 8.12-7.664"/><path d="m477.195 590.075v-37.3359h4.67467v5.65987c1.196-2.62494 2.292-4.36507 3.28667-5.21974 0.99733-0.85626 2.11733-1.2844 3.36-1.2844 1.73466 0 3.50266 0.68014 5.30666 2.03907l-1.75733 5.87187c-1.28933-0.91467-2.54133-1.37187-3.76-1.37187-1.10267 0-2.11067 0.3864-3.024 1.15987-0.91467 0.77346-1.56 1.85213-1.93467 3.2344-0.656 2.41506-0.98533 4.98013-0.98533 7.7v19.5468h-5.16667"/><path d="m500.117 570.739c0 4.90933 0.80933 8.4932 2.42933 10.7495 1.62 2.25573 3.60667 3.38226 5.956 3.38226 2.34667 0 4.344-1.1036 5.98667-3.312 1.644-2.20933 2.46667-5.7224 2.46667-10.5385 0-4.7-0.84667-8.1948-2.53734-10.4864-1.68933-2.2896-3.744-3.436-6.164-3.436-2.16133 0-4.05733 1.1464-5.68933 3.436-1.63333 2.2916-2.448 5.6932-2.448 10.2052zm-4.28933 22.4292 5.06266 0.91458c0.23467 2.00416 0.93734 3.49479 2.10934 4.47343 1.172 0.97761 2.8 1.46824 4.88533 1.46824 2.27333 0 4.084-0.54688 5.432-1.63491 1.34667-1.09061 2.268-2.71457 2.76133-4.8703 0.304-1.31355 0.45467-4.07859 0.45467-8.29899-1.124 1.6068-2.39067 2.8172-3.796 3.63227-1.40667 0.81466-2.964 1.2224-4.67467 1.2224-3.656 0-6.69333-1.5468-9.10666-4.64107-2.76534-3.56307-4.14934-8.33227-4.14934-14.3084 0-4.00773 0.61067-7.512 1.82934-10.512 1.21866-3 2.81733-5.20253 4.79866-6.60933 1.98-1.40627 4.20134-2.10934 6.66134-2.10934 1.80533 0 3.45066 0.44267 4.94 1.32707 1.488 0.88547 2.808 2.212 3.956 3.9812v-4.464h4.78133v32.2735c0 5.74106-0.468 9.83693-1.40667 12.2864-0.93733 2.44948-2.47333 4.38281-4.60666 5.80156-2.132 1.41719-4.69734 2.12656-7.69734 2.12656-3.96133 0-7.008-1.06667-9.14133-3.19896-2.132-2.13333-3.164-5.08645-3.09333-8.85989"/></g><path d="m421.197 251.147c-110.513 0-214.353 8.75333-292.391 24.6493-56.4677 11.5013-116.806 31.7053-116.806 53.9187 0 22.2133 60.3385 42.42 116.806 53.9213 78.0377 15.8947 181.878 24.648 292.391 24.648s214.353-8.75333 292.391-24.648c56.468-11.5013 116.807-31.708 116.807-53.9213 0-22.2133-60.3387-42.4173-116.807-53.9187-78.0373-15.896-181.877-24.6493-292.391-24.6493zm0 169.137c-111.293 0-215.984-8.84-294.786-24.8907-38.6172-7.864-69.0271-17.0693-90.386-27.3547-23.9052-11.5107-36.0255-24.4053-36.0255-38.324 0-13.9173 12.1203-26.812 36.0255-38.3227 21.3589-10.2867 51.7688-19.4893 90.386-27.356 78.8032-16.0507 183.493-24.8893 294.786-24.8893s215.984 8.83867 294.787 24.8893c38.616 7.86667 69.0267 17.0693 90.3853 27.356 23.904 11.5107 36.0253 24.4053 36.0253 38.3227 0 13.9187-12.1213 26.8133-36.0253 38.324-21.3587 10.2853-51.7693 19.4907-90.3853 27.3547-78.8013 16.0507-183.493 24.8907-294.787 24.8907" fill="#5d64b8"/><g fill="#79bf38"><path d="m275.307 122.452c14.7787 12.432 23.0067 28.896 24.692 49.3827 0.33067 4.708-1.18133 8.74-4.536 12.0933-3.02267 2.69334-6.88933 4.37067-11.5893 5.04-4.37067 0.33867-8.236-0.66933-11.5907-3.024-3.7-2.68533-5.716-6.37733-6.04667-11.0853-1.34666-14.7787-7.39333-26.0307-18.14-33.7627-11.4253-8.39333-28.392-12.5973-50.8947-12.5973-17.1333 0-31.416 3.528-42.832 10.5827-11.4253 7.73066-17.1333 17.4707-17.1333 29.2267 0 13.7787 5.04 24.6907 15.1173 32.7533 10.748 8.40133 30.5653 16.2987 59.4613 23.684 35.2733 8.06266 60.1293 18.9827 74.5773 32.7533 13.772 12.7707 20.6613 30.408 20.6613 52.9107 0 22.5107-8.236 40.6507-24.692 54.4213-17.8093 15.448-43.336 23.18-76.5933 23.18-33.2587 0-58.792-6.88934-76.594-20.66-17.81-13.7707-27.2109-33.7627-28.2188-59.9653-0.33854-4.7 1.17293-8.56666 4.53493-11.5893 2.68493-2.68533 6.21253-4.032 10.5823-4.032 4.362-0.33067 8.06253 0.67733 11.086 3.024 3.35413 2.35333 5.20413 5.88133 5.54266 10.5813 0 17.472 5.54294 30.7387 16.6296 39.8093 11.7547 9.74666 30.7373 14.6133 56.9413 14.6133 21.8333 0 38.9653-4.86667 51.3973-14.6133 11.756-8.732 17.6373-20.4867 17.6373-35.2733 0-13.7707-5.03867-24.5187-15.1173-32.2507-12.0933-9.73867-34.604-18.644-67.5227-26.7067-29.904-7.724-51.572-17.464-65.0047-29.2267-14.7865-12.424-22.1719-29.0533-22.1719-49.8867 0-22.5027 8.89733-40.1387 26.7072-52.9107 16.7947-12.0933 38.8013-18.14 66.012-18.14 33.9267 0 59.6253 7.228 77.0973 21.668"/><path d="m494.393 122.956c0-9.07067 4.36133-13.6053 13.1013-13.6053h162.761c13.772 0 22.676 3.86534 26.708 11.5893 4.03067 7.732 2.18 15.96-5.544 24.692l-163.265 205.593h162.259c4.7 0 8.392 1.34667 11.0853 4.03067 2.68533 2.69333 4.03067 6.048 4.03067 10.0787 0 3.7-1.34534 6.88933-4.03067 9.57466-2.69333 3.02267-6.38533 4.53467-11.0853 4.53467h-174.856c-13.1013 0-21.668-4.7-25.6987-14.1093-4.032-9.07067-2.016-17.8027 6.04667-26.2027l159.233-202.067h-147.14c-9.07066 0-13.6053-4.7-13.6053-14.1093"/><path d="m386.844 48.8814c0-13.432 3.85733-24.6907 11.5893-33.7613 8.732-10.0787 20.8253-15.1173 36.2813-15.1173h20.156c5.04 0 9.07066 1.34667 12.0947 4.03067 2.684 2.69333 4.03067 6.048 4.03067 10.0787 0 3.7-1.34667 6.88933-4.03067 9.57467-3.024 3.02267-7.05466 4.53467-12.0947 4.53467h-14.6133c-7.39333 0-13.1013 2.35467-17.132 7.05467-3.36266 4.032-5.04 9.244-5.04 15.6213v58.4533h36.7853c5.04 0 9.07066 1.34534 12.0947 4.03067 2.684 2.69333 4.03067 5.88133 4.03067 9.57467 0 3.7-1.34667 6.88933-4.03067 9.57333-3.024 3.024-7.05466 4.536-12.0947 4.536h-36.7853v233.812c0 5.04-1.684 9.236-5.03866 12.5973-3.02267 3.024-6.55067 4.536-10.5813 4.536-4.37066 0-8.06266-1.34667-11.0867-4.032-3.02267-3.36134-4.53467-7.724-4.53467-13.1013v-233.812h-25.196c-5.03867 0-9.06933-1.512-12.0933-4.536-2.69334-2.684-4.03067-5.87333-4.03067-9.57333 0-3.69334 1.33733-6.88134 4.03067-9.57467 3.024-2.68533 7.05466-4.03067 12.0933-4.03067h25.196v-60.4693"/><path d="m818.276 368.641c0 20.0547-16.2573 36.312-36.312 36.312s-36.3133-16.2573-36.3133-36.312c0-20.0547 16.2587-36.3133 36.3133-36.3133s36.312 16.2587 36.312 36.3133"/><path d="m788.383 87.076c0-0.948-0.15334-1.768-0.46134-2.45867-0.30666-0.692-0.844-1.28-1.61333-1.76667-0.64-0.409333-1.35733-0.685333-2.15067-0.826667-0.79466-0.14-1.81866-0.210666-3.07333-0.210666h-4.41733v11.8693h3.76533c1.22933 0 2.38-0.121334 3.456-0.365334 1.076-0.242666 1.94667-0.658666 2.612-1.248 0.66667-0.589333 1.14533-1.268 1.44133-2.036 0.29467-0.768 0.44134-1.75467 0.44134-2.95733zm12.5987 25.0827h-8.71866l-10.8707-13.6373h-4.72533v13.6373h-6.33734v-35.1467h10.7173c2.40666 0 4.308 0.08933 5.704 0.269333 1.39466 0.178667 2.80933 0.678667 4.244 1.49733 1.536 0.870667 2.65066 1.92 3.34133 3.14933 0.692 1.22933 1.03733 2.804 1.03733 4.72533 0 2.56133-0.71066 4.66-2.13066 6.3-1.42267 1.63867-3.272 2.91867-5.55067 3.84zm9.71867-16.9013c0-8.01467-2.81067-14.8453-8.432-20.4933-5.62133-5.64533-12.4013-8.46933-20.3387-8.46933-7.93866 0-14.7187 2.824-20.3387 8.46933-5.62 5.648-8.432 12.4787-8.432 20.4933 0 8.01467 2.812 14.852 8.432 20.512 5.62 5.65867 12.4 8.488 20.3387 8.488 7.93734 0 14.7173-2.82933 20.3387-8.488 5.62133-5.66 8.432-12.4973 8.432-20.512zm4.41733 0c0 9.168-3.24666 16.996-9.73733 23.488-6.492 6.492-14.3213 9.73733-23.4893 9.73733-9.16667 0-16.996-3.24533-23.488-9.73733-6.49067-6.492-9.73734-14.32-9.73734-23.488 0-9.168 3.24667-16.9907 9.73734-23.4693 6.492-6.47867 14.3213-9.71867 23.488-9.71867 9.168 0 16.9973 3.24 23.4893 9.71867 6.49067 6.47867 9.73733 14.3013 9.73733 23.4693"/></g></svg>
